<svg width="101" height="100" viewBox="0 0 101 100" fill="none" xmlns="http://www.w3.org/2000/svg">
<rect x="0.25" width="100" height="100" rx="50" fill="#FFD7BB"/>
<path fill-rule="evenodd" clip-rule="evenodd" d="M65.9291 26.782C66.217 26.1947 66.8608 25.8897 67.5159 26.0366C68.154 26.189 68.603 26.7566 68.603 27.4116V40.2615C71.8218 40.9166 74.25 43.7684 74.25 47.1764C74.25 50.5844 71.8218 53.439 68.603 54.094V66.9412C68.603 67.5962 68.154 68.1666 67.5159 68.3162C67.4094 68.3408 67.3005 68.3531 67.1912 68.3529C66.6632 68.3529 66.1719 68.0593 65.9291 67.5736C60.7309 57.1802 50.3545 57.0588 50.25 57.0588H40.3677V71.1765H42.5615C42.2651 68.9233 42.1239 65.0014 44.1484 62.4094C45.4585 60.7322 47.3898 59.8823 49.8971 59.8823V62.7058C48.2848 62.7058 47.1328 63.1774 46.3761 64.143C44.6566 66.3397 45.2495 70.7388 45.6194 72.2494C45.7239 72.6701 45.6279 73.1162 45.3625 73.4579C45.0942 73.7995 44.682 74 44.25 74H38.9559C38.1766 74 37.5441 73.3703 37.5441 72.5882V57.0588H36.1324C32.2387 57.0588 29.0735 53.8936 29.0735 49.9999V48.5882H27.6618C26.8825 48.5881 26.25 47.9585 26.25 47.1764C26.25 46.3971 26.8825 45.7646 27.6618 45.7646H29.0735V44.3528C29.0735 40.462 32.2387 37.294 36.1323 37.294H50.2472C50.6707 37.2912 60.7592 37.1189 65.9291 26.782ZM65.7794 32.2427C60.9117 38.302 54.474 39.6968 51.6618 40.0187V54.3369C54.474 54.6588 60.9117 56.0508 65.7794 62.1129V32.2427ZM48.8383 40.1175H36.1323C33.7973 40.1175 31.8971 42.0178 31.8971 44.3528V49.9999C31.8971 52.335 33.7973 54.2352 36.1323 54.2352H48.8383V40.1175ZM68.603 43.2037V51.1519C70.2434 50.5675 71.4265 49.0145 71.4265 47.1764C71.4265 45.3383 70.2434 43.7881 68.603 43.2037Z" fill="#3E030E"/>
</svg>
