<svg width="20" height="20" viewBox="0 0 20 20" fill="none" xmlns="http://www.w3.org/2000/svg">
<g clip-path="url(#clip0_125_337)">
<path fill-rule="evenodd" clip-rule="evenodd" d="M5.88091 0C2.65273 0 0 2.64909 0 5.88091V14.1195C0 17.3473 2.64909 20 5.88091 20H14.1195C17.3473 20 20 17.3509 20 14.1195V5.88091C20 2.65273 17.3509 0 14.1195 0H5.88091ZM5.88091 1.81818H14.1195C16.3673 1.81818 18.1818 3.63273 18.1818 5.88091V14.1195C18.1818 16.3673 16.3673 18.1818 14.1195 18.1818H5.88091C3.63273 18.1818 1.81818 16.3673 1.81818 14.1195V5.88091C1.81818 3.63273 3.63273 1.81818 5.88091 1.81818ZM15.3695 3.80682C14.9114 3.80682 14.5455 4.17273 14.5455 4.63091C14.5455 5.08864 14.9114 5.45455 15.3695 5.45455C15.8273 5.45455 16.1932 5.08864 16.1932 4.63091C16.1932 4.17273 15.8273 3.80682 15.3695 3.80682ZM10 4.54545C6.99909 4.54545 4.54546 6.99909 4.54546 10C4.54546 13.0009 6.99909 15.4545 10 15.4545C13.0009 15.4545 15.4545 13.0009 15.4545 10C15.4545 6.99909 13.0009 4.54545 10 4.54545ZM10 6.36364C12.0205 6.36364 13.6364 7.97955 13.6364 10C13.6364 12.0205 12.0205 13.6364 10 13.6364C7.97955 13.6364 6.36363 12.0205 6.36363 10C6.36363 7.97955 7.97955 6.36364 10 6.36364Z" fill="white"/>
</g>
<defs>
<clipPath id="clip0_125_337">
<rect width="20" height="20" fill="white"/>
</clipPath>
</defs>
</svg>
