<svg width="101" height="100" viewBox="0 0 101 100" fill="none" xmlns="http://www.w3.org/2000/svg">
<rect x="0.334961" width="100" height="100" rx="50" fill="#4B514F" fill-opacity="0.2"/>
<path d="M43.835 46C48.2532 46 51.835 42.4183 51.835 38C51.835 33.5817 48.2532 30 43.835 30C39.4167 30 35.835 33.5817 35.835 38C35.835 42.4183 39.4167 46 43.835 46Z" stroke="#4B514F" stroke-width="4"/>
<path opacity="0.5" d="M43.835 68C51.5669 68 57.835 64.4183 57.835 60C57.835 55.5817 51.5669 52 43.835 52C36.103 52 29.835 55.5817 29.835 60C29.835 64.4183 36.103 68 43.835 68Z" stroke="#4B514F" stroke-width="4"/>
<path d="M61.835 43.287L60.7712 44.3446C61.0528 44.6278 61.4356 44.787 61.835 44.787C62.2344 44.787 62.6172 44.6278 62.8988 44.3446L61.835 43.287ZM60.922 49.8846C59.9492 49.142 59.073 48.548 58.3668 47.7782C57.7124 47.0648 57.335 46.3276 57.335 45.3994H54.335C54.335 47.2962 55.1634 48.724 56.1562 49.8062C57.0972 50.8322 58.3094 51.6644 59.102 52.2694L60.922 49.8846ZM57.335 45.3994C57.335 44.5755 57.8146 43.9093 58.4296 43.6372C58.962 43.4016 59.8098 43.3774 60.7712 44.3446L62.8988 42.2295C61.1604 40.4809 59.008 40.1006 57.2156 40.8938C55.5054 41.6506 54.335 43.3985 54.335 45.3994H57.335ZM59.102 52.2694C59.4 52.4966 59.7862 52.7918 60.1936 53.0222C60.6014 53.253 61.1662 53.5 61.835 53.5V50.5C61.9038 50.5 61.8686 50.523 61.6708 50.4112C61.4724 50.299 61.2472 50.1326 60.922 49.8846L59.102 52.2694ZM64.568 52.2694C65.3606 51.6644 66.5728 50.8322 67.5138 49.8062C68.5066 48.724 69.335 47.2962 69.335 45.3994H66.335C66.335 46.3276 65.9576 47.0648 65.3032 47.7782C64.597 48.548 63.7208 49.142 62.748 49.8846L64.568 52.2694ZM69.335 45.3994C69.335 43.3985 68.1646 41.6506 66.4544 40.8938C64.662 40.1006 62.5096 40.4809 60.7712 42.2295L62.8988 44.3446C63.8602 43.3774 64.708 43.4016 65.2404 43.6372C65.8554 43.9093 66.335 44.5755 66.335 45.3994H69.335ZM62.748 49.8846C62.4228 50.1326 62.1976 50.299 61.9992 50.4112C61.8014 50.523 61.7662 50.5 61.835 50.5V53.5C62.5038 53.5 63.0686 53.253 63.4764 53.0222C63.8838 52.7918 64.27 52.4966 64.568 52.2694L62.748 49.8846Z" fill="#4B514F"/>
</svg>
