<svg width="101" height="100" viewBox="0 0 101 100" fill="none" xmlns="http://www.w3.org/2000/svg">
<rect x="0.666016" width="100" height="100" rx="50" fill="#D1ABEF"/>
<g clip-path="url(#clip0_89_36)">
<path d="M68.9557 53.5648C69.1458 53.4357 69.721 53.0451 70.1635 52.7444C72.3799 53.2285 74.013 54.528 74.3283 56.5634C74.5457 59.5092 73.8649 62.4518 72.3758 65.0028C72.0512 65.6016 71.5962 66.12 71.0446 66.5196C70.4615 66.9289 69.6471 67.2223 68.9244 67.1333C68.2619 67.0315 67.6576 66.6965 67.2201 66.1887C66.7843 65.6986 66.4326 65.1397 66.1794 64.5347C66.1423 64.4485 66.1061 64.3618 66.0707 64.2746H59.3161C58.9187 63.3746 58.3923 62.5372 57.7533 61.789C57.2316 61.1708 56.2336 60.6162 55.1752 60.2041L54.7084 60.1221C54.6633 60.1018 54.0831 59.8264 54.0535 59.8172C53.6088 59.5714 53.5149 59.1935 53.4579 58.8591C53.447 58.7955 53.4377 58.7395 53.4316 58.6904C54.5175 58.1825 55.3812 56.7961 55.5359 56.4053C55.5903 56.2617 55.6373 56.1154 55.6768 55.967C55.7741 56.0149 55.8838 56.0316 55.991 56.0148C56.0981 55.998 56.1974 55.9484 56.2753 55.873C56.4643 55.7123 56.6164 55.5127 56.7211 55.2878C56.9075 54.9146 57.0051 54.5033 57.0061 54.0861C57.3665 53.7976 57.7435 53.5304 58.1352 53.286C58.4855 53.0843 58.8554 52.9188 59.2391 52.7919C61.6877 54.0886 62.931 54.4802 65.1948 54.4302C67.394 54.3816 68.1373 54.0245 68.8922 53.6085L68.9557 53.5648Z" fill="white"/>
<path d="M44.8403 41.5672C44.9239 41.4948 45.021 41.4397 45.126 41.4051C45.231 41.3704 45.3419 41.3569 45.4521 41.3653C45.5927 41.3652 45.7307 41.4033 45.8513 41.4755C45.972 41.5477 46.0708 41.6512 46.1372 41.7752C46.361 42.1938 46.3266 42.9508 46.1524 43.4143C46.0292 43.7424 45.8283 44.2442 45.3717 44.5939C45.2712 44.6722 45.1555 44.7289 45.032 44.7602C44.9084 44.7916 44.7798 44.7971 44.654 44.7763L44.5861 44.7626C44.5119 44.9869 44.4231 45.2061 44.3202 45.4188C44.1249 45.9004 43.0833 47.5699 41.8095 48.2102C41.7693 48.4848 41.7513 48.7622 41.7556 49.0397C41.7569 49.3817 41.8151 49.7128 42.1529 49.933C42.1687 49.9417 42.448 50.1196 42.8615 50.3396C40.3102 52.155 36.5588 51.6216 34.5524 49.7885C35.066 49.5932 35.7511 49.3283 35.7727 49.3222C36.1506 49.1814 36.2799 48.8713 36.3561 48.5377C36.4081 48.3186 36.4466 48.0964 36.4715 47.8726C36.0284 47.5583 35.6362 47.1777 35.3088 46.7442C34.7766 46.0573 34.3907 45.2687 34.1748 44.4269C34.0394 44.4511 33.9003 44.4441 33.7681 44.4065C33.6359 44.3688 33.5139 44.3016 33.4116 44.2098C32.9783 43.8314 32.8104 43.3178 32.7082 42.9822C32.5641 42.5085 32.5785 41.751 32.8287 41.3475C32.9029 41.2282 33.0082 41.1313 33.1333 41.0671C33.2583 41.0029 33.3985 40.9739 33.5387 40.983C33.6494 40.9817 33.7591 41.0023 33.8618 41.0436C33.9644 41.085 34.0578 41.1462 34.1366 41.2239C34.1366 41.2239 33.2848 36.8901 40.0758 36.8901C46.1994 36.8893 44.8403 41.5672 44.8403 41.5672Z" fill="white"/>
<path d="M43.2305 50.1929C43.0015 50.076 42.776 49.9528 42.5541 49.8234C42.4907 49.7863 42.4277 49.7487 42.3651 49.7106C42.3497 49.7012 42.334 49.6918 42.3187 49.6822C42.3077 49.6752 42.2627 49.6452 42.287 49.6637C42.263 49.6447 42.2403 49.6241 42.2192 49.602C42.2145 49.5973 42.1651 49.5415 42.1855 49.5667C42.2012 49.5864 42.1583 49.5255 42.1529 49.5166C42.141 49.4969 42.1309 49.4765 42.1201 49.4562C42.0884 49.3965 42.1263 49.4865 42.1092 49.4272C42.1015 49.4009 42.0929 49.3753 42.0863 49.3486C42.0796 49.322 42.0746 49.2952 42.0694 49.2681C42.0568 49.2035 42.0694 49.3103 42.0653 49.2379C42.0493 48.9669 42.0552 48.695 42.0829 48.4249C42.0823 48.3453 42.0505 48.2692 41.9942 48.2129C41.938 48.1567 41.8618 48.1248 41.7823 48.1243C41.7031 48.1259 41.6276 48.1581 41.5715 48.2142C41.5155 48.2702 41.4833 48.3457 41.4817 48.4249C41.4284 48.9646 41.3825 49.6416 41.8155 50.0484C41.9365 50.1527 42.0686 50.2434 42.2094 50.3189C42.4444 50.4577 42.6836 50.589 42.927 50.7127C42.9963 50.751 43.0777 50.7613 43.1543 50.7412C43.2309 50.7211 43.2968 50.6723 43.3383 50.6048C43.3778 50.5358 43.3885 50.454 43.3684 50.3771C43.3482 50.3002 43.2987 50.2343 43.2305 50.1935V50.1929Z" fill="#211715"/>
<path d="M32.3331 64.6939C32.0912 64.882 31.831 65.0453 31.5565 65.1815C30.7595 65.572 29.7678 65.6852 28.9698 65.2965C28.0497 64.8484 27.5784 63.856 27.3259 62.9041C26.843 61.0809 26.9135 59.165 27.1505 57.2984C27.3578 55.6662 27.7267 53.972 28.8254 52.7028C29.8134 51.5621 32.5856 50.3327 34.5358 49.7702C36.5702 51.6509 40.4332 52.1796 42.9936 50.2442C44.6319 50.6311 45.8554 51.0193 47.0616 51.9737C47.4384 52.2925 47.7459 52.6852 47.9652 53.1274C48.1733 53.5251 48.341 54.1744 48.4493 54.5878C48.8707 56.1781 49.1649 57.7994 49.3294 59.4364C49.2307 59.5974 49.0909 59.7291 48.9243 59.8179C48.8916 59.8272 48.3145 60.1025 48.2663 60.1228C47.1835 60.5349 45.7218 61.1716 45.1882 61.7897C44.4607 62.6322 44.1811 63.2751 43.8071 64.3574C43.8071 64.3574 35.4606 64.3574 32.732 64.3574C32.6035 64.4752 32.4709 64.5879 32.3331 64.6939Z" fill="white"/>
<path d="M58.1394 44.6997C58.1567 44.5083 58.2121 44.3223 58.3022 44.1525C58.3695 44.0355 58.4677 43.9392 58.5859 43.8741C58.7042 43.809 58.8381 43.7776 58.9729 43.7832C59.079 43.779 59.1848 43.7957 59.2843 43.8326C59.3839 43.8695 59.4751 43.9257 59.5527 43.9981C59.5527 43.9981 58.8663 39.2958 64.5028 39.2958C70.4919 39.2958 69.8262 44.038 69.8262 44.038C69.9044 43.9663 69.9961 43.9108 70.0959 43.8747C70.1957 43.8386 70.3016 43.8226 70.4076 43.8277C70.5425 43.8238 70.6758 43.8566 70.7935 43.9225C70.9112 43.9884 71.0088 44.0851 71.0759 44.2021C71.3013 44.5975 71.2888 45.3244 71.1349 45.7735C71.0255 46.0916 70.8468 46.5782 70.4181 46.9259C70.3238 47.0037 70.2144 47.0612 70.0968 47.0946C69.9792 47.1281 69.8559 47.1368 69.7348 47.1202L69.6694 47.1089C69.6042 47.326 69.5249 47.5387 69.432 47.7454C69.2614 48.2031 68.3423 49.7762 67.1727 50.4497C67.3508 50.9222 67.6082 51.6043 67.6082 51.6043C67.9565 52.1692 69.1125 52.6161 69.999 52.981L68.8918 53.6083C68.1369 54.0242 67.3936 54.3813 65.1944 54.4299C62.9334 54.4801 61.6903 54.0893 59.248 52.7959C60.3604 52.3905 61.4944 52.1093 62.0298 51.7504C62.0938 51.7203 62.1505 51.6768 62.1961 51.6228C62.218 51.5812 62.2319 51.5358 62.2373 51.4891C62.2934 51.1754 62.3492 50.8623 62.4048 50.5497C61.8286 50.2839 61.3151 49.8494 60.8266 49.2605C60.2977 48.6164 59.9063 47.8709 59.6764 47.0698C59.5472 47.0965 59.4136 47.0935 59.2858 47.061C59.1579 47.0284 59.0392 46.9672 58.9385 46.8819C58.5126 46.5312 58.3373 46.0427 58.2307 45.7241C58.1299 45.3926 58.0988 45.0438 58.1394 44.6997Z" fill="white"/>
<path d="M56.545 54.9405C57.0745 54.3665 57.6903 53.8787 58.3702 53.4947C58.9965 53.1314 59.7301 52.931 60.4164 52.7172C60.7844 52.6021 60.6273 52.0215 60.2566 52.1374C59.5218 52.3671 58.737 52.5864 58.0667 52.9755C57.342 53.3849 56.6853 53.9043 56.1199 54.5152C55.8627 54.8033 56.2866 55.2292 56.545 54.9411V54.9405Z" fill="#211715"/>
<path d="M42.3668 50.4073C43.9546 50.7679 45.6805 51.1559 46.9405 52.2618C47.2619 52.5547 47.5248 52.906 47.7152 53.2969C47.8884 53.6784 48.0213 54.0769 48.1118 54.486C48.3585 55.4143 48.572 56.3503 48.7354 57.297C48.9268 58.4061 49.0494 59.525 49.1413 60.6464C49.1432 60.7255 49.1755 60.8009 49.2315 60.8568C49.2874 60.9128 49.3628 60.9451 49.4419 60.947C49.5214 60.9464 49.5975 60.9146 49.6538 60.8583C49.71 60.8021 49.7419 60.726 49.7425 60.6464C49.5887 58.5746 49.253 56.5203 48.7394 54.5073C48.6392 54.085 48.5111 53.6699 48.3558 53.2646C48.1708 52.8175 47.9089 52.4063 47.5818 52.0496C47.2799 51.7414 46.9385 51.4743 46.5665 51.2555C46.2147 51.0362 45.8458 50.8458 45.4633 50.6861C44.5207 50.2877 43.5218 50.0538 42.5266 49.8279C42.1499 49.7423 41.989 50.3219 42.3668 50.4077V50.4073Z" fill="#211715"/>
<path d="M44.6093 62.5582C44.2719 63.0885 44.0614 63.6213 43.8076 64.3573H59.3506C58.9513 63.4255 58.4128 62.5597 57.7536 61.7896C57.1928 61.1257 56.0816 60.5342 54.9367 60.1146C54.5208 60.7805 53.2951 61.3734 52.0493 61.4488C51.3471 61.494 50.6421 61.446 49.9525 61.306C49.2105 61.1517 48.484 60.8169 48.0028 60.2247C46.9579 60.6355 45.6796 61.2204 45.1882 61.7896C44.9766 62.0312 44.7831 62.2881 44.6093 62.5582Z" fill="#FEBE69"/>
<path d="M55.8995 53.3381C55.9732 53.2742 56.0598 53.2269 56.1535 53.1995C56.2471 53.1721 56.3456 53.1653 56.4421 53.1794C56.5368 53.1928 56.6274 53.2272 56.707 53.2802C56.7867 53.3332 56.8535 53.4034 56.9024 53.4855C56.9592 53.5989 56.9915 53.723 56.9972 53.8497C57.0386 54.3453 56.9429 54.8428 56.7206 55.2877C56.6158 55.5126 56.4638 55.7122 56.2748 55.8729C56.1969 55.9483 56.0977 55.9978 55.9906 56.0146C55.8836 56.0314 55.7739 56.0148 55.6767 55.967C55.6282 56.1576 55.5639 56.3243 55.5354 56.4054C55.3812 56.7962 54.5174 58.1825 53.4311 58.6904C53.4371 58.7395 53.4465 58.7955 53.4574 58.8591C53.5149 59.1935 53.6077 59.5714 54.053 59.8172C54.0825 59.8265 54.6627 60.1018 54.7078 60.1221L54.8802 60.1992L54.841 60.2483C54.3538 60.8579 53.21 61.3779 52.0485 61.4481C51.3464 61.4934 50.6413 61.4454 49.9517 61.3054C49.2645 61.1624 48.5905 60.8647 48.1122 60.3509L48.002 60.2325L48.2651 60.1221C48.3133 60.1018 48.8903 59.8265 48.923 59.8172C49.3647 59.5714 49.4596 59.1935 49.5171 58.8591C49.5219 58.8388 49.5249 58.8202 49.528 58.8001C48.9433 58.5411 48.4236 58.1551 48.0068 57.6701C47.5775 57.189 47.2478 56.6275 47.0369 56.0182C46.946 56.05 46.848 56.0559 46.7539 56.0351C46.6598 56.0144 46.5734 55.9678 46.5043 55.9006C46.3153 55.7399 46.1632 55.5403 46.0584 55.3154C45.8362 54.8705 45.7405 54.373 45.7819 53.8773C45.7875 53.7507 45.8198 53.6266 45.8766 53.5132C45.9256 53.431 45.9924 53.3609 46.0721 53.3079C46.1517 53.2549 46.2423 53.2205 46.337 53.2071C46.4335 53.193 46.532 53.1998 46.6256 53.2272C46.7193 53.2546 46.8059 53.3019 46.8796 53.3658C46.8796 53.3658 46.0484 49.7291 51.1426 49.7291C56.2367 49.7291 55.8995 53.3381 55.8995 53.3381Z" fill="white"/>
<path d="M58.2414 50.3495C57.8683 49.9661 57.7433 49.6176 57.6228 49.0701C57.5392 48.6606 57.4187 48.2595 57.2627 47.8719C57.1473 47.6015 56.9749 47.3592 56.7573 47.1617C56.156 46.6258 55.6258 46.4283 54.875 46.5344C54.2912 46.6172 53.7539 46.8582 53.5128 47.3752V47.3761C53.3875 47.3197 53.2599 47.2686 53.1299 47.2228C52.5518 47.0235 51.9441 46.9238 51.3327 46.9281C50.2441 46.9096 49.1779 47.2377 48.2881 47.8651C47.3382 48.5465 46.2624 49.7602 46.1763 51.7249C46.1705 52.2244 46.2133 52.7234 46.3041 53.2146C46.3149 53.2111 46.3261 53.2086 46.3375 53.2073C46.434 53.1931 46.5325 53.2 46.6261 53.2274C46.7198 53.2548 46.8064 53.302 46.8801 53.366L47.033 53.5037C47.1061 53.2054 47.2448 52.9271 47.439 52.6891C47.6331 52.4511 47.8779 52.2593 48.1555 52.1278C48.1715 52.1204 48.1875 52.1131 48.2037 52.1061C49.0265 52.1061 51.1431 52.1061 51.1431 52.1061C51.4083 52.0588 51.6678 51.9832 51.917 51.8807C52.3331 51.6495 52.6925 51.3286 52.9692 50.9413C53.3273 50.9839 53.6729 51.099 53.9852 51.2794C54.2974 51.4599 54.5696 51.702 54.7854 51.991C55.0932 52.3939 55.3183 52.8536 55.4477 53.3438C55.6905 53.3414 55.8986 53.3379 55.8986 53.3379C55.9665 53.279 56.0453 53.2342 56.1306 53.2061C56.2159 53.178 56.306 53.1671 56.3955 53.1741C56.4794 52.6958 56.5108 52.2097 56.4892 51.7246C56.4683 51.2325 56.3784 50.7458 56.2222 50.2788L56.4484 50.371C56.9954 50.5993 57.5748 50.5586 58.2414 50.3495Z" fill="#85807F"/>
<path d="M49.2292 58.8001C49.2292 58.8044 49.2449 58.7125 49.2351 58.75C49.2318 58.7626 49.23 58.7751 49.2278 58.7876C49.2248 58.8029 49.2224 58.8182 49.2195 58.8335C49.2128 58.8698 49.2056 58.9061 49.1975 58.9422C49.1818 59.0139 49.1615 59.0845 49.1366 59.1536C49.1323 59.1651 49.1064 59.2299 49.1271 59.1797C49.1466 59.1319 49.1231 59.1867 49.1178 59.1976C49.1002 59.2338 49.0806 59.2689 49.0591 59.3029C49.048 59.3203 49.036 59.3371 49.0244 59.3541C48.9943 59.3984 49.0628 59.3098 49.0269 59.3505C48.998 59.3839 48.9674 59.4158 48.9352 59.4461C48.918 59.4619 48.9 59.4765 48.8823 59.4916C48.8573 59.5127 48.9014 59.4759 48.9023 59.4759C48.8969 59.4759 48.8811 59.4911 48.8764 59.4943C48.8555 59.5086 48.8322 59.5204 48.8123 59.5356C48.7705 59.5676 48.8374 59.53 48.8396 59.53C48.7881 59.5437 48.7388 59.5648 48.6933 59.5926C48.5886 59.6406 48.4846 59.6898 48.3802 59.7388C48.2925 59.7803 48.2048 59.8242 48.1149 59.8626C48.0473 59.9022 47.9979 59.9667 47.9771 60.0423C47.9563 60.1205 47.9672 60.2037 48.0074 60.2739C48.0473 60.3413 48.1116 60.3907 48.187 60.4117C48.2655 60.4282 48.3472 60.4175 48.4188 60.3814C48.611 60.2991 48.7979 60.2028 48.9881 60.1155L49.0418 60.0912C49.0979 60.0661 48.9678 60.1271 49.0042 60.1071C49.0645 60.0786 49.1232 60.047 49.1802 60.0124C49.238 59.9727 49.2934 59.9297 49.3462 59.8835C49.5008 59.7405 49.6204 59.5636 49.6954 59.3668C49.7283 59.2856 49.7546 59.2018 49.774 59.1163C49.8042 59.013 49.8232 58.9067 49.8308 58.7994C49.8308 58.7197 49.7991 58.6432 49.7427 58.5868C49.6863 58.5305 49.6099 58.4988 49.5302 58.4988C49.4504 58.4988 49.374 58.5305 49.3176 58.5868C49.2612 58.6432 49.2295 58.7197 49.2295 58.7994L49.2292 58.8001Z" fill="#211715"/>
<path d="M53.1309 58.6897C53.1837 59.093 53.266 59.4903 53.5479 59.8016C53.6262 59.8853 53.7146 59.9591 53.8109 60.0214C53.8618 60.0573 53.9172 60.0864 53.9757 60.1078C53.9961 60.1147 53.8847 60.0675 53.9197 60.0842C53.9276 60.0879 53.9359 60.0914 53.9439 60.0951C54.0514 60.1435 54.1578 60.1943 54.2646 60.2445C54.362 60.2902 54.459 60.3374 54.557 60.3823C54.6263 60.4205 54.7077 60.4307 54.7843 60.4106C54.8609 60.3905 54.9268 60.3418 54.9684 60.2744C55.0077 60.2053 55.0184 60.1236 54.9982 60.0468C54.9781 59.9699 54.9287 59.904 54.8605 59.8631C54.6738 59.7787 54.4898 59.6877 54.3039 59.6023C54.2742 59.5885 54.2445 59.5749 54.2146 59.5618C54.1891 59.5487 54.1627 59.5376 54.1356 59.5285C54.1414 59.53 54.2008 59.5638 54.174 59.5402C54.1643 59.5333 54.1541 59.5271 54.1436 59.5216C54.124 59.5091 54.1052 59.4966 54.0861 59.4841C54.0804 59.4802 54.0496 59.4571 54.0811 59.4809C54.1125 59.5047 54.0753 59.4757 54.0693 59.4705C54.0353 59.4416 54.0033 59.4106 53.9733 59.3776C53.9617 59.3618 53.9489 59.3468 53.9351 59.3327C53.9351 59.3327 53.9696 59.3828 53.9531 59.3554C53.9465 59.3446 53.9384 59.3347 53.9314 59.3244C53.9091 59.291 53.8888 59.2565 53.8704 59.2209C53.8621 59.2049 53.8547 59.1885 53.8467 59.1722C53.8249 59.1278 53.8688 59.2327 53.8467 59.1699C53.8182 59.091 53.7948 59.0103 53.7769 58.9283C53.7686 58.89 53.7612 58.8515 53.7543 58.8129C53.7493 58.7846 53.7444 58.7561 53.7397 58.7276C53.7364 58.7076 53.7221 58.608 53.733 58.6908C53.7302 58.6116 53.699 58.5361 53.6453 58.4779C53.5885 58.422 53.5121 58.3906 53.4324 58.3902C53.2869 58.3967 53.1097 58.5238 53.1318 58.6908L53.1309 58.6897Z" fill="#211715"/>
<path d="M53.7724 47.5269C53.9527 47.1573 54.2942 46.9695 54.6829 46.8756C55.0831 46.7642 55.5087 46.7855 55.8958 46.9363C56.2975 47.1114 56.6382 47.4017 56.8748 47.7705C57.1332 48.1929 57.2358 48.7236 57.3442 49.2005C57.4407 49.7094 57.6779 50.181 58.0288 50.5619L58.1614 50.0594C57.6158 50.2271 57.071 50.2993 56.5292 50.0812C56.4524 50.0606 56.3705 50.071 56.3012 50.1103C56.232 50.1496 56.181 50.2146 56.1594 50.2911C56.1401 50.368 56.1512 50.4493 56.1903 50.5182C56.2294 50.5871 56.2936 50.6382 56.3694 50.661C57.0013 50.9153 57.6846 50.8348 58.3213 50.6392C58.3714 50.6244 58.4168 50.597 58.4532 50.5595C58.4896 50.522 58.5157 50.4758 58.529 50.4253C58.5423 50.3748 58.5424 50.3217 58.5293 50.2712C58.5161 50.2206 58.4902 50.1743 58.4539 50.1367C58.1093 49.7762 57.9959 49.3534 57.8878 48.8784C57.7671 48.3483 57.6182 47.762 57.2934 47.3176C56.9763 46.8883 56.5467 46.555 56.052 46.3546C55.5753 46.1833 55.0582 46.1592 54.5676 46.2855C54.0231 46.407 53.5048 46.7078 53.2532 47.2234C53.215 47.2927 53.2049 47.374 53.2249 47.4506C53.245 47.5271 53.2937 47.593 53.361 47.6346C53.43 47.6741 53.5118 47.685 53.5888 47.6648C53.6657 47.6446 53.7316 47.5952 53.7724 47.5269Z" fill="#211715"/>
<path d="M56.1128 53.5507C56.1525 53.5191 56.1982 53.4963 56.2473 53.4835C56.2963 53.4707 56.3474 53.4683 56.3974 53.4764C56.4474 53.4846 56.4951 53.5031 56.5375 53.5308C56.5799 53.5585 56.6161 53.5947 56.6436 53.6372C56.6936 53.7589 56.7151 53.8905 56.7063 54.0218C56.7107 54.1755 56.6997 54.3293 56.6733 54.4808C56.6209 54.784 56.511 55.0743 56.3497 55.3363C56.2369 55.5148 56.0527 55.7633 55.8339 55.7049C55.4596 55.6047 55.3 56.1849 55.674 56.2846C56.1653 56.4156 56.55 56.0987 56.8178 55.7167C57.0773 55.3269 57.2382 54.8799 57.2866 54.4141C57.3393 53.9823 57.3396 53.4336 56.9897 53.1194C56.809 52.962 56.5771 52.8757 56.3374 52.8767C56.0976 52.8777 55.8665 52.966 55.6871 53.1249C55.6312 53.1816 55.6 53.2579 55.6 53.3375C55.6 53.417 55.6312 53.4934 55.6871 53.55C55.7442 53.6049 55.8204 53.6355 55.8996 53.6355C55.9789 53.6355 56.055 53.6049 56.1122 53.55L56.1128 53.5507Z" fill="#211715"/>
<path d="M47.0937 53.1534C46.9142 52.9945 46.6831 52.9064 46.4434 52.9053C46.2037 52.9043 45.9718 52.9905 45.791 53.1479C45.4413 53.4618 45.4414 54.011 45.4941 54.4425C45.5425 54.9083 45.7033 55.3554 45.9629 55.7452C46.2309 56.1275 46.6142 56.4442 47.1066 56.3131C47.4801 56.2129 47.3216 55.6335 46.9467 55.7334C46.7283 55.7916 46.5434 55.5431 46.4309 55.3648C46.2695 55.1028 46.1597 54.8125 46.1073 54.5093C46.0822 54.3659 46.071 54.2203 46.074 54.0748C46.0628 53.9353 46.0845 53.7952 46.1373 53.6657C46.1649 53.6232 46.2011 53.5869 46.2435 53.5593C46.2859 53.5316 46.3336 53.5131 46.3836 53.5049C46.4336 53.4968 46.4847 53.4991 46.5337 53.5119C46.5827 53.5247 46.6285 53.5476 46.6682 53.5791C46.7256 53.6336 46.8016 53.6639 46.8807 53.6639C46.9598 53.6639 47.0359 53.6336 47.0933 53.5791C47.149 53.5224 47.1803 53.4461 47.1803 53.3666C47.1803 53.2871 47.149 53.2107 47.0933 53.154L47.0937 53.1534Z" fill="#211715"/>
<path d="M55.4346 55.6423C55.3932 55.8755 55.33 56.1042 55.2458 56.3256C55.2293 56.3733 55.2814 56.2589 55.2519 56.3105C55.2394 56.3317 55.2306 56.3556 55.2198 56.3777C55.1963 56.425 55.1712 56.4715 55.1454 56.5176C55.0004 56.7751 54.8354 57.0208 54.6518 57.2525C54.2049 57.8161 53.6276 58.3949 52.9003 58.5539C52.5225 58.6364 52.6825 59.2161 53.0601 59.1335C53.8862 58.9531 54.5659 58.3194 55.0767 57.6776C55.5186 57.1221 55.9082 56.5183 56.014 55.8021C56.0326 55.7253 56.0213 55.6443 55.9823 55.5756C55.9433 55.5069 55.8795 55.4556 55.8041 55.4322C55.7272 55.4117 55.6453 55.4222 55.5761 55.4615C55.5069 55.5008 55.4559 55.5657 55.4342 55.6423H55.4346Z" fill="#211715"/>
<path d="M46.63 55.7034C46.8534 56.5646 47.2918 57.355 47.9042 58.0005C48.5154 58.6446 49.3059 59.1691 50.1994 59.2953C50.2761 59.3138 50.3571 59.3024 50.4258 59.2634C50.4944 59.2243 50.5457 59.1606 50.5691 59.0852C50.5897 59.0084 50.5793 58.9265 50.54 58.8573C50.5007 58.7881 50.4357 58.7371 50.3592 58.7155C48.7817 58.4929 47.5903 57.016 47.2098 55.5436C47.1129 55.1694 46.5334 55.3281 46.63 55.7034Z" fill="#211715"/>
<path d="M56.6923 53.2205C56.9213 51.8195 56.7811 50.3324 56.0034 49.1132C55.2592 47.9669 54.1108 47.1427 52.7866 46.8043C51.4284 46.456 49.99 46.61 48.7364 47.238C47.8065 47.7225 47.037 48.4662 46.5212 49.379C46.1914 49.9816 45.9833 50.6431 45.9089 51.326C45.8505 51.9587 45.8803 52.5965 45.9974 53.221C46.0191 53.2975 46.0701 53.3625 46.1393 53.4017C46.2084 53.441 46.2903 53.4515 46.3672 53.4309C46.443 53.4081 46.5072 53.357 46.5463 53.2881C46.5854 53.2193 46.5964 53.138 46.5771 53.0612C46.4164 52.0732 46.4346 50.9722 46.8742 50.0112C47.2563 49.1939 47.8588 48.4995 48.614 48.0059C49.6439 47.3559 50.8726 47.0967 52.0773 47.2752C53.301 47.4464 54.4158 48.0707 55.2013 49.0244C56.1228 50.146 56.3411 51.6619 56.1125 53.0617C56.0937 53.1384 56.105 53.2195 56.144 53.2883C56.1831 53.357 56.2469 53.4082 56.3225 53.4314C56.3995 53.452 56.4815 53.4414 56.5507 53.4019C56.6199 53.3624 56.6708 53.2972 56.6923 53.2205Z" fill="#211715"/>
<path d="M59.5757 64.1231C59.1673 63.1682 58.605 62.2867 57.9112 61.5139C57.2205 60.7473 56.1975 60.2838 55.2552 59.9144C55.1783 59.8938 55.0964 59.9043 55.0272 59.9435C54.958 59.9828 54.907 60.0477 54.8853 60.1243C54.8659 60.2011 54.877 60.2824 54.9161 60.3513C54.9553 60.4202 55.0194 60.4713 55.0953 60.4941C55.9546 60.831 56.8937 61.2627 57.5139 61.9702C58.1541 62.7027 58.6747 63.5317 59.0567 64.4264C59.0972 64.4949 59.1631 64.5447 59.2401 64.5649C59.3171 64.5851 59.3989 64.5741 59.4679 64.5343C59.5351 64.4927 59.5839 64.4268 59.6039 64.3502C59.624 64.2737 59.6139 64.1924 59.5757 64.1231Z" fill="#211715"/>
<path d="M44.0968 64.4373C44.3615 63.6732 44.6629 62.9363 45.1615 62.2915C45.3671 62.0145 45.6176 61.7739 45.9025 61.5794C46.2567 61.3503 46.6272 61.1476 47.011 60.9728C47.4481 60.7672 47.895 60.5845 48.346 60.4121C48.4217 60.389 48.4856 60.3378 48.5247 60.269C48.5637 60.2002 48.575 60.1191 48.5561 60.0423C48.5343 59.9657 48.4834 59.9008 48.4142 59.8615C48.345 59.8222 48.2631 59.8117 48.1862 59.8322C47.3322 60.1579 46.4643 60.5086 45.6905 61.0009C44.989 61.447 44.4725 62.1157 44.0955 62.8505C43.8694 63.312 43.6761 63.7888 43.517 64.2774C43.3902 64.6438 43.9707 64.8013 44.0967 64.4373H44.0968Z" fill="#211715"/>
<path d="M53.4362 51.3497C53.8833 51.5175 54.2738 51.8084 54.5623 52.1889C54.7807 52.4776 54.9525 52.7989 55.0712 53.1409C55.0944 53.2071 55.116 53.2739 55.136 53.3413C55.144 53.3682 55.1516 53.3951 55.1591 53.4222C55.1647 53.4425 55.1702 53.4628 55.1755 53.4832C55.1902 53.549 55.1972 53.5092 55.1967 53.3637L55.3046 53.2559L55.2895 53.2659L55.4412 53.2249L55.4219 53.2232C55.3424 53.2238 55.2663 53.2556 55.21 53.3119C55.1538 53.3681 55.1219 53.4442 55.1213 53.5238C55.1229 53.603 55.1551 53.6785 55.2111 53.7346C55.2672 53.7906 55.3427 53.8228 55.4219 53.8244C55.6724 53.8466 55.8024 53.5804 55.764 53.3678C55.7305 53.2087 55.6832 53.0528 55.6224 52.9019C55.5067 52.5804 55.351 52.2748 55.159 51.9923C54.7796 51.4306 54.2326 51.0028 53.5961 50.7699C53.5192 50.7495 53.4374 50.76 53.3683 50.7993C53.2991 50.8385 53.2481 50.9034 53.2263 50.9798C53.2067 51.0567 53.2176 51.1381 53.2568 51.2071C53.2959 51.276 53.3602 51.3272 53.4362 51.3497Z" fill="#211715"/>
<path d="M53.0705 49.9029C52.9896 50.3971 52.7413 50.8484 52.3671 51.1812C52.1837 51.35 51.982 51.4978 51.7659 51.6219C51.7486 51.6324 51.7032 51.6453 51.7769 51.6195C51.7541 51.6275 51.7317 51.6369 51.7089 51.6445C51.649 51.666 51.5882 51.6849 51.5274 51.7029C51.3747 51.7481 51.2199 51.7857 51.0639 51.8168C50.9875 51.8386 50.9227 51.8896 50.8834 51.9588C50.8441 52.0279 50.8335 52.1097 50.8539 52.1865C50.8764 52.2625 50.9276 52.3269 50.9965 52.366C51.0655 52.4052 51.1469 52.4161 51.2237 52.3966C51.5162 52.3512 51.8009 52.2649 52.0695 52.1404C52.3334 51.9957 52.5766 51.8159 52.7923 51.6058C53.24 51.1994 53.5415 50.657 53.6503 50.0622C53.669 49.9854 53.6577 49.9044 53.6187 49.8356C53.5797 49.7669 53.5159 49.7156 53.4404 49.6923C53.3635 49.6717 53.2816 49.6822 53.2124 49.7215C53.1433 49.7608 53.0923 49.8258 53.0706 49.9024L53.0705 49.9029Z" fill="#211715"/>
<path d="M50.6997 49.9097C50.4868 50.3632 50.1956 50.7757 49.8396 51.1282C49.4851 51.4625 49.0194 51.5422 48.5659 51.6668C48.1048 51.7773 47.6825 52.0113 47.3445 52.3438C47.0269 52.6711 46.8104 53.0831 46.721 53.5304C46.7019 53.6072 46.7131 53.6884 46.7522 53.7572C46.7913 53.826 46.8553 53.8772 46.9311 53.9001C47.0079 53.9206 47.0897 53.91 47.1589 53.8708C47.228 53.8315 47.279 53.7667 47.3008 53.6902C47.3762 53.282 47.5891 52.9119 47.9042 52.6416C48.2394 52.3535 48.6637 52.2643 49.0792 52.1542C49.5536 52.0506 49.9899 51.817 50.339 51.4794C50.6964 51.1056 50.9932 50.6782 51.2188 50.2127C51.2571 50.1434 51.2672 50.0621 51.2471 49.9855C51.227 49.9089 51.1783 49.843 51.111 49.8014C51.0419 49.7619 50.9602 49.7511 50.8833 49.7713C50.8063 49.7914 50.7404 49.841 50.6996 49.9092L50.6997 49.9097Z" fill="#211715"/>
<path d="M47.901 60.5636C48.624 61.325 49.6535 61.6085 50.6663 61.7182C51.749 61.8354 52.8457 61.7491 53.8507 61.3101C54.3127 61.1248 54.7251 60.834 55.0549 60.461C55.1092 60.4036 55.1394 60.3275 55.1394 60.2485C55.1394 60.1694 55.1092 60.0933 55.0549 60.0359C54.9982 59.98 54.9219 59.9487 54.8423 59.9487C54.7627 59.9487 54.6864 59.98 54.6297 60.0359C54.1151 60.6651 53.2415 60.9718 52.4648 61.1018C51.9687 61.1741 51.4658 61.1882 50.9664 61.1438C50.476 61.1164 49.9909 61.0272 49.5228 60.8784C49.0693 60.7336 48.6583 60.4795 48.3261 60.1385C48.0591 59.8574 47.6345 60.283 47.901 60.5636Z" fill="#211715"/>
<path d="M69.4786 46.6523C69.3932 47.014 69.2754 47.3673 69.1264 47.7078C69.164 47.6148 69.1083 47.7453 69.0952 47.7728C69.0702 47.8257 69.0429 47.8781 69.0153 47.9301C68.9517 48.0498 68.8836 48.1672 68.8127 48.2827C68.4481 48.8975 67.9827 49.4467 67.436 49.9071C67.1424 50.1566 66.7952 50.335 66.4214 50.4284C66.0443 50.5145 66.2038 51.0943 66.5812 51.0082C67.3675 50.8289 68.0248 50.2596 68.5406 49.6649C68.9827 49.1715 69.3527 48.618 69.6397 48.0209C69.6551 47.9871 69.6697 47.9529 69.6841 47.9187C69.6856 47.9153 69.7305 47.8091 69.71 47.8561C69.6915 47.8985 69.7117 47.8541 69.7149 47.8473C69.7293 47.8158 69.7423 47.7835 69.7557 47.7516C69.7808 47.6918 69.8058 47.632 69.8282 47.5713C69.9243 47.3245 70.0011 47.0706 70.0578 46.8119C70.1372 46.4345 69.5578 46.2733 69.478 46.6521L69.4786 46.6523Z" fill="#211715"/>
<path d="M68.2907 36.7093C67.937 36.4642 67.5588 36.2565 67.1621 36.0896C66.3819 35.756 65.5364 35.6029 64.6887 35.6416C61.8563 35.4749 59.1453 37.5956 58.5882 40.2788C58.4367 41.0028 58.495 42.123 58.5768 42.7109C58.6254 43.0594 58.7318 43.5341 58.8954 43.7889C58.9205 43.7857 58.9455 43.7841 58.9726 43.7832C59.0786 43.779 59.1844 43.7958 59.284 43.8326C59.3835 43.8695 59.4747 43.9257 59.5524 43.9981L60.1411 43.1265C60.5168 42.8728 60.9629 42.6801 61.5503 42.4376C61.6973 42.3845 61.8384 42.3164 61.9714 42.2345C61.9688 42.2827 61.9672 42.3146 61.9672 42.3146C61.9547 42.3682 61.9591 42.4243 61.9799 42.4752C62.0006 42.5262 62.0366 42.5694 62.0829 42.5991C62.2099 42.6432 62.3444 42.6613 62.4785 42.6526C62.9643 42.6732 63.4462 42.5572 63.8694 42.3179C63.9248 42.2849 63.9763 42.2519 64.0244 42.2177H66.2431C66.5671 41.9644 66.8385 41.6504 67.0424 41.2933C67.26 40.9132 67.4098 40.4982 67.4852 40.0668H67.9624C68.052 40.7916 68.3441 41.4749 68.6568 42.135C68.8447 42.5319 69.0758 42.9573 69.4848 43.1174L69.8265 44.0378C69.9047 43.9661 69.9963 43.9106 70.0961 43.8745C70.1959 43.8384 70.3019 43.8224 70.4079 43.8275C70.5157 43.8301 70.6222 43.8519 70.7224 43.8916C71.1334 42.8586 70.9228 41.1749 70.7513 40.3259C70.664 39.8931 70.5226 39.473 70.3305 39.0754C70.0305 38.4199 69.5982 37.8335 69.0609 37.353L68.2907 36.7093Z" fill="#FEBE69"/>
<path d="M59.2857 46.7543C59.5161 47.7881 59.996 48.7499 60.6836 49.5555C61.3484 50.3331 62.2066 50.9517 63.2362 51.1087C63.313 51.1273 63.3941 51.116 63.4628 51.0769C63.5315 51.0379 63.5828 50.9741 63.6061 50.8986C63.6267 50.8218 63.6161 50.7399 63.5768 50.6707C63.5375 50.6015 63.4726 50.5506 63.3961 50.5289C62.4566 50.3853 61.7158 49.84 61.1088 49.1301C60.4937 48.3988 60.0669 47.5283 59.8654 46.5942C59.7812 46.2167 59.2015 46.3765 59.2857 46.754V46.7543Z" fill="#211715"/>
<path d="M68.4424 36.4497C67.3932 35.7175 66.143 35.3281 64.8635 35.3349C64.343 35.3246 63.8226 35.3573 63.3075 35.4326C62.8132 35.5263 62.332 35.6796 61.8746 35.8891C60.1006 36.6877 58.5909 38.3868 58.272 40.3416C58.1867 40.9263 58.1683 41.5188 58.2168 42.1077C58.2553 42.6895 58.3254 43.2871 58.5708 43.8221C58.6115 43.8905 58.6774 43.9401 58.7544 43.9603C58.8314 43.9804 58.9132 43.9695 58.9822 43.9299C59.0496 43.8884 59.0985 43.8225 59.1185 43.7459C59.1386 43.6693 59.1284 43.5879 59.09 43.5186C58.9938 43.2871 58.9275 43.0442 58.8927 42.7959C58.8612 42.615 58.8426 42.4301 58.8258 42.217C58.7842 41.73 58.7828 41.2404 58.8216 40.7532C58.9004 39.8675 59.2869 39.0178 59.8073 38.3059C60.8706 36.8515 62.6518 35.905 64.4618 35.9336C64.7695 35.9385 65.0776 35.928 65.3847 35.9522C65.7117 35.9794 66.0354 36.0375 66.3514 36.1258C66.9901 36.3053 67.5943 36.5902 68.1391 36.9688C68.459 37.188 68.7601 36.6674 68.4424 36.4497Z" fill="#211715"/>
<path d="M70.9885 44.029C71.3403 43.1914 71.2983 42.1898 71.2021 41.3047C71.1614 40.8919 71.0954 40.4819 71.0044 40.0772C70.8682 39.5205 70.6526 38.9862 70.3644 38.4908C70.0723 37.9872 69.7044 37.5317 69.2735 37.1402C68.9891 36.8785 68.5628 37.303 68.8484 37.5653C69.5788 38.2318 70.1076 39.0899 70.3746 40.042C70.5873 40.8425 70.6826 41.6697 70.6576 42.4976C70.6612 42.9663 70.5768 43.4314 70.4087 43.8689C70.388 43.9458 70.3984 44.0278 70.4377 44.097C70.4771 44.1663 70.5421 44.2172 70.6188 44.2388C70.6956 44.2579 70.7768 44.2468 70.8456 44.2077C70.9145 44.1686 70.9656 44.1045 70.9885 44.0288V44.029Z" fill="#211715"/>
<path d="M67.6621 40.067C67.7718 40.7678 67.9876 41.4479 68.3022 42.0836C68.5527 42.6273 68.8245 43.1648 69.4052 43.408C69.482 43.4287 69.564 43.4183 69.6332 43.379C69.7024 43.3397 69.7533 43.2747 69.7749 43.198C69.7941 43.1212 69.783 43.04 69.7439 42.9712C69.7049 42.9023 69.6408 42.8512 69.565 42.8283C69.159 42.6583 68.9649 42.0949 68.7978 41.7289C68.5385 41.2044 68.3583 40.6444 68.2633 40.067C68.2608 39.9881 68.2284 39.9131 68.1725 39.8572C68.1167 39.8014 68.0417 39.7689 67.9627 39.7664C67.8831 39.7668 67.8069 39.7987 67.7506 39.8549C67.6943 39.9112 67.6625 39.9874 67.6621 40.067Z" fill="#211715"/>
<path d="M59.7653 43.7855C59.5944 43.6314 59.3819 43.531 59.1544 43.4969C58.9268 43.4627 58.6943 43.4963 58.4857 43.5935C58.3357 43.6703 58.2048 43.7799 58.1027 43.914C58.0007 44.0482 57.93 44.2035 57.8959 44.3686C57.8083 44.7554 57.8009 45.156 57.8742 45.5458C57.9474 45.9356 58.0997 46.3063 58.3217 46.6349C58.6116 47.0657 59.0665 47.4527 59.6206 47.3816C59.6996 47.3791 59.7746 47.3467 59.8305 47.2908C59.8863 47.235 59.9188 47.1599 59.9212 47.081C59.9208 47.0014 59.889 46.9251 59.8327 46.8689C59.7764 46.8126 59.7002 46.7808 59.6206 46.7803C59.1948 46.8351 58.9083 46.4797 58.725 46.1385C58.5672 45.8546 58.4681 45.5418 58.4335 45.2188C58.4069 44.9019 58.4098 44.5206 58.5974 44.2486C58.5598 44.3038 58.6162 44.2284 58.6272 44.2171C58.636 44.2082 58.6979 44.1584 58.6763 44.1733C58.7309 44.1363 58.7923 44.1108 58.8569 44.0981C58.9407 44.0771 59.0282 44.0763 59.1123 44.0959C59.1964 44.1155 59.2746 44.1549 59.3404 44.2109C59.6268 44.4698 60.0533 44.0459 59.7655 43.7857L59.7653 43.7855Z" fill="#211715"/>
<path d="M67.3494 51.7561C67.6071 52.1612 68.0491 52.422 68.4667 52.6354C68.9583 52.8867 69.4744 53.0864 69.9842 53.2974C70.061 53.3181 70.143 53.3077 70.2122 53.2684C70.2814 53.2291 70.3324 53.1641 70.3539 53.0875C70.3731 53.0107 70.3621 52.9294 70.323 52.8606C70.2839 52.7917 70.2198 52.7406 70.144 52.7177C69.6931 52.5313 69.24 52.3535 68.8038 52.1333C68.5971 52.0319 68.3983 51.9153 68.2088 51.7846C68.1369 51.7356 68.0697 51.6799 68.0084 51.6181C67.9784 51.5889 67.95 51.5584 67.9222 51.5272C67.9065 51.5095 67.8862 51.4806 67.9113 51.5157C67.8966 51.4951 67.8825 51.4741 67.8689 51.453C67.8286 51.3842 67.7627 51.3341 67.6855 51.3139C67.6084 51.2937 67.5264 51.3049 67.4575 51.3452C67.3887 51.3854 67.3387 51.4514 67.3184 51.5285C67.2982 51.6057 67.3094 51.6877 67.3497 51.7565L67.3494 51.7561Z" fill="#211715"/>
<path d="M60.4162 52.7173C60.9407 52.5653 61.4528 52.3738 61.9482 52.1443C62.1737 52.0306 62.4367 51.8963 62.5126 51.6383C62.5454 51.5013 62.5708 51.3627 62.5889 51.2231L62.6712 50.7615C62.6902 50.6847 62.679 50.6036 62.64 50.5348C62.6009 50.466 62.537 50.4148 62.4613 50.3918C62.3844 50.3713 62.3026 50.3818 62.2335 50.4211C62.1643 50.4603 62.1133 50.5252 62.0915 50.6017C62.0436 50.8709 61.9989 51.1403 61.9475 51.4093C61.9438 51.4326 61.939 51.4557 61.933 51.4785C61.9322 51.4785 61.9545 51.4379 61.9566 51.4433C61.9566 51.4445 61.8499 51.5095 61.8379 51.5171C61.7593 51.5659 61.678 51.6103 61.5944 51.6501C61.4081 51.7377 61.2169 51.8147 61.0219 51.8806C60.7683 51.971 60.5122 52.054 60.2564 52.1374C60.1805 52.1601 60.1163 52.2113 60.0772 52.2802C60.0381 52.349 60.0271 52.4304 60.0465 52.5072C60.0684 52.5836 60.1193 52.6485 60.1885 52.6877C60.2576 52.727 60.3394 52.7376 60.4162 52.7173Z" fill="#211715"/>
<path d="M60.2974 53.6625C60.9352 53.9744 61.5989 54.2301 62.2812 54.4266C62.9187 54.5957 63.5728 54.6946 64.2319 54.7214C64.9602 54.7551 65.6901 54.7345 66.4154 54.6599C66.9283 54.6164 67.4352 54.519 67.9278 54.3693C68.3147 54.2381 68.6883 54.0704 69.0433 53.8683C69.3824 53.6818 69.0794 53.1624 68.7398 53.3493C68.5989 53.4268 68.4573 53.5029 68.3123 53.5727C68.2442 53.6054 68.1754 53.637 68.1059 53.6668C68.1657 53.6411 68.0497 53.6892 68.0315 53.6962C67.9846 53.7145 67.9374 53.732 67.89 53.7488C67.4698 53.893 67.0351 53.9905 66.5936 54.0394C65.3117 54.1927 63.9515 54.2115 62.6894 53.9107C61.9687 53.7277 61.2688 53.4707 60.6009 53.1438C60.5315 53.1057 60.4502 53.0957 60.3737 53.1158C60.2972 53.1358 60.2313 53.1845 60.1895 53.2517C60.15 53.3207 60.1392 53.4024 60.1593 53.4794C60.1795 53.5563 60.2291 53.6222 60.2974 53.6629V53.6625Z" fill="#211715"/>
<path d="M66.3947 42.4776C66.8716 42.1161 67.2454 41.6359 67.4791 41.085C67.7212 40.5192 67.8494 39.9112 67.8565 39.2959C67.8721 38.909 67.2708 38.9096 67.2553 39.2959C67.2492 39.5861 67.2181 39.8753 67.1622 40.1601C67.1155 40.3733 67.0477 40.5814 66.9601 40.7813C66.7597 41.2224 66.4921 41.6697 66.0913 41.9587C66.0241 42.0004 65.9755 42.0663 65.9554 42.1429C65.9354 42.2194 65.9454 42.3007 65.9835 42.37C66.0241 42.4384 66.09 42.488 66.167 42.5082C66.2439 42.5284 66.3257 42.5175 66.3947 42.4779V42.4776Z" fill="#211715"/>
<path d="M61.6671 42.3149C61.6526 42.4345 61.6777 42.5555 61.7387 42.6594C61.7996 42.7632 61.893 42.8443 62.0044 42.89C62.2095 42.9514 62.4245 42.9727 62.6377 42.9526C63.0633 42.9413 63.4817 42.8399 63.8652 42.655C64.2579 42.458 64.5982 42.1703 64.8577 41.8158C65.1307 41.4749 65.3469 41.0922 65.4979 40.6825C65.644 40.224 65.7372 39.7504 65.776 39.2708C65.7755 39.1912 65.7437 39.115 65.6874 39.0588C65.6311 39.0025 65.5549 38.9707 65.4753 38.9702C65.3962 38.972 65.3208 39.0043 65.2648 39.0603C65.2088 39.1163 65.1766 39.1917 65.1747 39.2708C65.1368 39.7037 65.0483 40.1306 64.9109 40.5428C64.7601 40.9345 64.5383 41.295 64.2566 41.6062C64.0542 41.8371 63.8054 42.0229 63.5265 42.1515C63.2476 42.28 62.9448 42.3484 62.6377 42.3524C62.5414 42.3544 62.4434 42.3559 62.3471 42.3499C62.3095 42.3508 62.272 42.3475 62.2351 42.3401C62.2701 42.3545 62.2625 42.3896 62.2683 42.315C62.2676 42.2355 62.2357 42.1595 62.1795 42.1032C62.1233 42.047 62.0472 42.0151 61.9677 42.0144C61.8884 42.0159 61.8128 42.048 61.7568 42.1041C61.7007 42.1602 61.6686 42.2356 61.6671 42.3149Z" fill="#211715"/>
<path d="M60.2927 43.3862C60.9597 42.941 61.7741 42.7782 62.4124 42.2934C63.0576 41.8035 63.3743 41.0569 63.5622 40.2902C63.6543 39.9145 63.0747 39.7543 62.9825 40.1304C62.8184 40.7994 62.563 41.4581 61.9796 41.8691C61.6689 42.0877 61.3171 42.2083 60.9707 42.3576C60.6289 42.4973 60.3004 42.6677 59.9894 42.8667C59.669 43.0806 59.9697 43.6015 60.2927 43.3859V43.3862Z" fill="#211715"/>
<path d="M34.3925 50.0477C36.1142 51.5674 38.6591 52.0972 40.8728 51.5615C41.5339 51.4022 42.1654 51.1385 42.7434 50.7803C43.0712 50.5763 42.7697 50.0559 42.4399 50.2612C40.6069 51.4022 38.1806 51.4307 36.2398 50.5338C35.724 50.3005 35.2448 49.9935 34.8172 49.6226C34.5281 49.3674 34.1014 49.791 34.3921 50.0477H34.3925Z" fill="#211715"/>
<path d="M33.382 37.309C33.8215 35.944 34.7046 34.765 35.891 33.9595C37.0222 33.1829 38.3766 32.7983 39.7471 32.8643C41.016 32.8878 42.2484 33.2934 43.2834 34.0279L44.0955 34.6937C45.1011 35.6629 45.9899 37.1519 46.0119 39.3069C46.0145 40.0197 45.9055 40.7285 45.6888 41.4076C45.6119 41.3844 45.5325 41.3702 45.4524 41.3654C45.3421 41.3569 45.2312 41.3704 45.1262 41.4051C45.0212 41.4398 44.9241 41.4949 44.8405 41.5673L44.0138 40.8675C43.7618 40.169 43.1674 39.3871 42.5398 38.8109C42.2588 38.5424 41.9343 38.3235 41.5801 38.1634L40.5209 37.9986C39.7944 38.2778 38.7622 38.8799 38.1845 39.177C38.1518 39.192 38.1154 39.1976 38.0797 39.1932C38.0439 39.1888 38.01 39.1745 37.9819 39.1519C37.9538 39.1294 37.9325 39.0994 37.9204 39.0655C37.9083 39.0315 37.9059 38.9948 37.9135 38.9596C37.9323 38.8352 37.928 38.7085 37.901 38.5857C37.8681 38.4287 37.7506 38.3587 37.6557 38.4046C36.8474 38.7961 35.6798 39.8379 35.0148 40.5322L34.1364 41.2231C34.0575 41.1456 33.9641 41.0844 33.8615 41.0433C33.7589 41.0021 33.6491 40.9816 33.5386 40.9831C33.4501 40.9826 33.3619 40.9936 33.2763 41.016C33.1044 40.3217 33.039 39.6053 33.0823 38.8913C33.1203 38.354 33.2209 37.8229 33.382 37.309Z" fill="#85807F"/>
<path d="M34.3496 41.0107C34.1737 40.8452 33.9522 40.7363 33.7137 40.698C33.4752 40.6597 33.2307 40.6937 33.0118 40.7958C32.8609 40.8745 32.7289 40.9849 32.6248 41.1195C32.5208 41.2541 32.4471 41.4096 32.4089 41.5754C32.1882 42.3443 32.3614 43.2346 32.7758 43.91C33.0622 44.3772 33.5318 44.7967 34.1168 44.7383C34.1958 44.7362 34.271 44.7038 34.3269 44.6479C34.3829 44.592 34.4152 44.5168 34.4174 44.4377C34.4168 44.3582 34.385 44.282 34.3287 44.2257C34.2725 44.1695 34.1963 44.1376 34.1168 44.1371C33.6603 44.1826 33.3664 43.7758 33.1862 43.4084C33.034 43.1057 32.9439 42.7756 32.9212 42.4375C32.9047 42.1119 32.9212 41.7164 33.1257 41.4449C33.0832 41.5016 33.1571 41.4151 33.1668 41.4058C33.2062 41.3682 33.1517 41.4101 33.2044 41.3745C33.2695 41.3304 33.3437 41.3018 33.4215 41.2906C33.5108 41.2737 33.6028 41.2781 33.6902 41.3034C33.7775 41.3286 33.8577 41.3741 33.9242 41.436C34.2038 41.7034 34.6296 41.2789 34.3494 41.0107H34.3496Z" fill="#211715"/>
<path d="M45.0532 41.7799C45.1257 41.7248 45.2101 41.6876 45.2996 41.6713C45.3892 41.6549 45.4813 41.66 45.5685 41.686C45.6734 41.7063 45.7671 41.7647 45.8316 41.8499C46.0224 42.1292 46.0164 42.5376 45.9773 42.8609C45.9297 43.2016 45.8147 43.5294 45.6392 43.8253C45.4638 44.1305 45.1381 44.5533 44.7346 44.4866C44.6578 44.4678 44.5767 44.479 44.508 44.5181C44.4392 44.5571 44.388 44.6209 44.3648 44.6965C44.3442 44.7733 44.3547 44.8552 44.394 44.9244C44.4333 44.9936 44.4982 45.0445 44.5747 45.0662C45.5619 45.2291 46.1626 44.2818 46.4497 43.4755C46.6888 42.8039 46.7252 41.7344 46.0813 41.2689C45.8631 41.1224 45.6028 41.0514 45.3404 41.0669C45.078 41.0824 44.8279 41.1834 44.6283 41.3545C44.5724 41.4113 44.541 41.4878 44.541 41.5675C44.541 41.6472 44.5724 41.7237 44.6283 41.7804C44.6855 41.8352 44.7617 41.8659 44.8409 41.8659C44.9201 41.8659 44.9963 41.8352 45.0535 41.7804L45.0532 41.7799Z" fill="#211715"/>
<path d="M44.4107 44.2931C44.3557 44.5151 44.286 44.7333 44.202 44.9461C44.1722 45.0233 44.1414 45.0997 44.1067 45.1747C44.0924 45.2058 44.076 45.236 44.0618 45.267C43.9691 45.471 44.0832 45.2303 44.0368 45.324C43.9267 45.5478 43.8029 45.7645 43.6661 45.973C43.2747 46.5963 42.7806 47.149 42.2048 47.6074C41.8821 47.8674 41.504 48.0497 41.0996 48.1403C41.0616 48.1508 41.026 48.1687 40.9948 48.1929C40.9637 48.2172 40.9376 48.2473 40.9181 48.2817C40.8986 48.316 40.8861 48.3538 40.8812 48.393C40.8763 48.4322 40.8792 48.472 40.8897 48.51C40.9002 48.5481 40.9181 48.5837 40.9424 48.6149C40.9666 48.646 40.9968 48.6721 41.0311 48.6916C41.0655 48.7111 41.1033 48.7236 41.1425 48.7285C41.1817 48.7333 41.2214 48.7304 41.2595 48.72C42.0828 48.5571 42.7838 47.9763 43.3367 47.3728C43.8102 46.872 44.2102 46.3065 44.5249 45.6933C44.5368 45.669 44.5483 45.6447 44.5593 45.62C44.5741 45.5906 44.5873 45.5605 44.5988 45.5297C44.5762 45.5742 44.6066 45.5172 44.6113 45.5074C44.6238 45.4824 44.6351 45.4562 44.6465 45.4304C44.6731 45.3706 44.6984 45.3103 44.7234 45.2499C44.8331 44.9915 44.9224 44.7249 44.9905 44.4526C45.0806 44.0769 44.501 43.9162 44.4107 44.2928V44.2931Z" fill="#211715"/>
<path d="M33.7927 44.0927C33.9482 44.9016 34.2507 45.675 34.6854 46.3747C35.1489 47.1157 35.7674 47.8116 36.5243 48.2618C36.911 48.4917 37.3357 48.6507 37.7783 48.7313C37.8551 48.7502 37.9363 48.739 38.0051 48.6999C38.0739 48.6609 38.1251 48.5969 38.1481 48.5212C38.1686 48.4443 38.1581 48.3625 38.1188 48.2934C38.0795 48.2242 38.0147 48.1732 37.9382 48.1514C36.9689 47.9761 36.2162 47.3874 35.6064 46.6359C34.9797 45.8496 34.556 44.9214 34.3724 43.9328C34.3506 43.8564 34.2996 43.7915 34.2305 43.7523C34.1613 43.713 34.0795 43.7025 34.0026 43.7229C33.9266 43.7455 33.8623 43.7966 33.8232 43.8655C33.784 43.9344 33.7731 44.0159 33.7927 44.0927Z" fill="#211715"/>
<path d="M43.436 33.7684C42.4959 33.1246 41.4117 32.7223 40.2793 32.5971C39.1468 32.4719 38.0009 32.6276 36.943 33.0505C36.0798 33.4111 35.3001 33.9456 34.6526 34.6208C34.0052 35.296 33.5037 36.0974 33.1797 36.9749C32.726 38.2682 32.6515 39.6643 32.965 40.9986C33.0488 41.3761 33.6288 41.2163 33.5447 40.8387C33.105 38.8582 33.5462 36.7378 34.9191 35.2133C35.9416 34.0868 37.3396 33.3714 38.8514 33.2011C40.3632 33.0307 41.8852 33.417 43.1328 34.2877C43.2018 34.3272 43.2836 34.3381 43.3605 34.3179C43.4374 34.2978 43.5034 34.2482 43.5441 34.1798C43.5827 34.1106 43.5931 34.0292 43.573 33.9525C43.5529 33.8758 43.5038 33.8099 43.4362 33.7686L43.436 33.7684Z" fill="#211715"/>
<path d="M46.0042 41.3986C46.1625 40.8598 46.2626 40.3055 46.3027 39.7453C46.3312 39.1892 46.2991 38.6317 46.2068 38.0826C46.0652 37.1808 45.7292 36.3205 45.2221 35.5614C44.9704 35.1909 44.6815 34.8473 44.3597 34.5359C44.0816 34.2666 43.656 34.6912 43.9346 34.961C44.4719 35.4775 44.904 36.0934 45.2067 36.7744C45.5692 37.6368 45.7411 38.5673 45.7106 39.5023C45.6895 40.091 45.5933 40.6746 45.4244 41.2389C45.3203 41.6122 45.9003 41.7715 46.0042 41.3988V41.3986Z" fill="#211715"/>
<path d="M41.4283 38.423C41.9414 38.6795 42.3979 39.0361 42.7709 39.472C43.1782 39.8997 43.5015 40.4002 43.7238 40.9474C43.7468 41.0231 43.798 41.0871 43.8668 41.1262C43.9356 41.1653 44.0168 41.1764 44.0936 41.1573C44.1701 41.1356 44.235 41.0846 44.2743 41.0154C44.3136 40.9462 44.3241 40.8644 44.3035 40.7875C44.0543 40.1571 43.6894 39.5787 43.2277 39.0823C42.8133 38.5929 42.3045 38.1921 41.7317 37.9038C41.6623 37.8657 41.5811 37.8556 41.5046 37.8757C41.428 37.8958 41.3622 37.9444 41.3204 38.0116C41.2809 38.0806 41.27 38.1624 41.2902 38.2394C41.3104 38.3163 41.36 38.3822 41.4283 38.423Z" fill="#211715"/>
<path d="M35.2282 40.7451C35.8798 40.0403 36.6138 39.4163 37.4142 38.8865C37.4999 38.8326 37.5871 38.7805 37.6762 38.7322C37.6991 38.7216 37.7214 38.7098 37.743 38.6969C37.7846 38.6673 37.7727 38.7029 37.7457 38.6858C37.7332 38.678 37.5444 38.7558 37.6148 38.6537C37.6044 38.6687 37.6208 38.7038 37.6223 38.7208C37.6318 38.8292 37.6074 38.9359 37.6172 39.043C37.6233 39.1143 37.6447 39.1834 37.6801 39.2456C37.7154 39.3077 37.7638 39.3615 37.822 39.4032C38.0661 39.5775 38.2979 39.4585 38.5293 39.3352C38.7297 39.2287 38.928 39.1199 39.1272 39.0124C39.6031 38.7411 40.0953 38.4993 40.6009 38.2885C40.6765 38.2653 40.7403 38.2141 40.7794 38.1453C40.8184 38.0766 40.8297 37.9955 40.8108 37.9187C40.7891 37.8421 40.7382 37.7772 40.669 37.7379C40.5998 37.6986 40.5179 37.6881 40.441 37.7088C39.9675 37.901 39.5058 38.121 39.0582 38.3676C38.84 38.4837 38.623 38.6023 38.4054 38.7197C38.3179 38.767 38.2302 38.8139 38.1424 38.8604C38.073 38.8969 38.0339 38.8868 38.1273 38.9165C38.2208 38.9462 38.2159 38.9958 38.2242 38.877C38.2427 38.6092 38.1819 38.2832 37.9264 38.1438C37.6848 38.0119 37.4429 38.1688 37.2353 38.2913C36.8039 38.557 36.3951 38.8576 36.0129 39.19C35.5899 39.545 35.1861 39.9222 34.8032 40.32C34.5351 40.5992 34.9596 41.0249 35.2282 40.7451Z" fill="#211715"/>
<path d="M34.7366 50.039C35.0054 49.9363 35.2742 49.8334 35.5429 49.7301C35.7119 49.6741 35.8772 49.6075 36.0379 49.5309C36.6033 49.2272 36.696 48.5038 36.7662 47.9315C36.7662 47.892 36.7585 47.8529 36.7434 47.8164C36.7282 47.78 36.7061 47.7468 36.6782 47.7189C36.6503 47.691 36.6171 47.6688 36.5807 47.6537C36.5442 47.6386 36.5051 47.6309 36.4656 47.6309C36.3866 47.6332 36.3115 47.6656 36.2556 47.7215C36.1997 47.7773 36.1673 47.8525 36.165 47.9315C36.1603 47.9696 36.1594 47.9769 36.1625 47.9531C36.1594 47.9756 36.1561 47.9979 36.1525 48.0202C36.1474 48.0535 36.1417 48.0867 36.1358 48.1204C36.1219 48.1988 36.1063 48.2769 36.0895 48.3548C36.0673 48.4686 36.0376 48.5808 36.0006 48.6906C35.9952 48.7056 35.9895 48.7203 35.9838 48.7351C35.999 48.6996 35.9998 48.6973 35.986 48.7282C35.9754 48.7491 35.9656 48.7703 35.9543 48.7908C35.9412 48.8148 35.926 48.8373 35.9119 48.8606C35.8733 48.9242 35.9349 48.8428 35.895 48.8835C35.8783 48.9004 35.863 48.9186 35.8457 48.935C35.8341 48.9462 35.8222 48.9568 35.8098 48.9672C35.8388 48.9459 35.8393 48.9452 35.8117 48.9652C35.7897 48.9789 35.7687 48.9933 35.746 49.0059C35.7246 49.0152 35.7037 49.0257 35.6834 49.0374C35.7085 49.0281 35.6718 49.0406 35.666 49.0427C35.6396 49.052 35.6136 49.0625 35.5875 49.0724C35.5001 49.1058 35.4129 49.1392 35.3257 49.1726C35.0761 49.2683 34.8265 49.3639 34.5768 49.4595C34.5009 49.4822 34.4367 49.5333 34.3976 49.6022C34.3584 49.6711 34.3474 49.7524 34.3667 49.8292C34.3887 49.9056 34.4397 49.9704 34.5088 50.0097C34.578 50.0489 34.6597 50.0596 34.7366 50.0393V50.039Z" fill="#211715"/>
<path d="M34.2346 49.5452C33.2665 49.843 32.3213 50.2104 31.4063 50.6446C30.5573 51.0454 29.709 51.5035 28.9925 52.1174C28.2435 52.7592 27.7525 53.6717 27.4289 54.5904C27.0621 55.6311 26.9048 56.7365 26.787 57.8299C26.6372 59.0504 26.6276 60.284 26.7585 61.5066C26.887 62.557 27.112 63.6893 27.7258 64.5754C27.9997 64.9905 28.3756 65.3281 28.8177 65.556C29.3156 65.7926 29.8704 65.8835 30.4178 65.8179C31.5488 65.6903 32.4938 65.0521 33.2712 64.2522C33.9851 63.5152 34.623 62.7081 35.1751 61.8432C35.6502 61.0732 36.0619 60.2658 36.4062 59.4291C36.516 59.1738 36.6239 58.9177 36.73 58.6608C36.7508 58.584 36.7404 58.502 36.7011 58.4327C36.6618 58.3635 36.5968 58.3125 36.5201 58.2909C36.4433 58.2718 36.3621 58.2829 36.2932 58.322C36.2244 58.3611 36.1732 58.4252 36.1504 58.501C35.8185 59.3377 35.4379 60.1543 35.0105 60.9466C34.57 61.7161 34.0579 62.4423 33.481 63.1157C32.8371 63.881 32.1065 64.6777 31.1446 65.0337C30.2458 65.3664 29.2143 65.3128 28.5159 64.5989C27.8521 63.9199 27.5977 62.9189 27.4366 62.0119C27.2527 60.8645 27.2142 59.6984 27.3221 58.5413C27.3867 57.4851 27.5485 56.4371 27.8055 55.4106C28.0528 54.4858 28.4434 53.5535 29.1022 52.8428C29.6542 52.2475 30.4015 51.83 31.1141 51.459C31.9688 51.0174 32.8551 50.6398 33.7656 50.3292C33.9744 50.2574 34.184 50.1893 34.3945 50.1249C34.7635 50.0122 34.6062 49.4315 34.2347 49.5451L34.2346 49.5452Z" fill="#211715"/>
<path d="M51.3008 54.7972C51.3414 54.9439 51.374 55.0928 51.3982 55.2431L51.3874 55.1632C51.3903 55.1836 51.3909 55.2042 51.3892 55.2247L51.3998 55.1448C51.3985 55.1542 51.3963 55.1635 51.3931 55.1725L51.4234 55.1007C51.4207 55.1069 51.4175 55.1129 51.4136 55.1185L51.4607 55.0576C51.4564 55.0629 51.4515 55.0678 51.4461 55.072L51.5069 55.0249C51.4956 55.032 51.4838 55.0383 51.4716 55.0437L51.5434 55.0134C51.5243 55.0215 51.5043 55.0273 51.4839 55.0307L51.5638 55.02C51.5452 55.0222 51.5265 55.0222 51.5079 55.02L51.5879 55.0308C51.5668 55.0278 51.5461 55.0227 51.5252 55.0199C51.4865 55.0074 51.4451 55.0055 51.4054 55.0145C51.3656 55.0162 51.327 55.0285 51.2935 55.0501C51.2594 55.07 51.2296 55.0965 51.2057 55.1279C51.1818 55.1594 51.1644 55.1952 51.1544 55.2334C51.1443 55.2716 51.142 55.3114 51.1473 55.3505C51.1527 55.3897 51.1657 55.4273 51.1857 55.4614C51.2048 55.4953 51.2305 55.525 51.2614 55.5487C51.2923 55.5724 51.3277 55.5896 51.3654 55.5992C51.4196 55.6066 51.4724 55.6201 51.5282 55.6226C51.6144 55.6229 51.6993 55.6023 51.7757 55.5625C51.8252 55.5392 51.869 55.5052 51.9039 55.4631C51.9388 55.4209 51.964 55.3716 51.9776 55.3186C51.9959 55.2347 51.9951 55.1477 51.9755 55.064C51.9513 54.9203 51.9182 54.778 51.8812 54.6371C51.8596 54.562 51.8104 54.4979 51.7434 54.4575C51.7093 54.4376 51.6717 54.4245 51.6325 54.4192C51.5934 54.4138 51.5536 54.4162 51.5154 54.4262C51.4772 54.4362 51.4414 54.4537 51.4099 54.4775C51.3784 54.5014 51.352 54.5313 51.3321 54.5654C51.2928 54.6358 51.2819 54.7187 51.3018 54.797L51.3008 54.7972Z" fill="#211715"/>
<path d="M49.0394 53.6062C48.9667 53.8428 49.0144 54.3869 49.4623 54.4329C50.0546 54.4294 50.0861 53.7714 49.8868 53.4621C49.7235 53.2093 49.2435 53.1039 49.0394 53.6062Z" fill="#211715"/>
<path d="M53.7623 53.6062C53.8352 53.8428 53.7873 54.3869 53.3395 54.4329C52.7472 54.4294 52.7157 53.7714 52.9151 53.462C53.0783 53.2091 53.5579 53.1039 53.7623 53.6062Z" fill="#211715"/>
<path d="M64.3818 45.6889C64.4276 45.8567 64.4641 46.0269 64.4912 46.1988L64.4804 46.1189C64.4837 46.1422 64.4842 46.1657 64.482 46.1892L64.4928 46.1092C64.4912 46.12 64.4886 46.1306 64.4849 46.1408L64.5152 46.069C64.5121 46.0761 64.5084 46.0829 64.5041 46.0893L64.551 46.0285C64.5461 46.0345 64.5405 46.04 64.5344 46.0449L64.5951 45.9978C64.5822 46.0058 64.5687 46.0129 64.5548 46.0191L64.6266 45.9887C64.6047 45.9979 64.5818 46.0045 64.5584 46.0083L64.6383 45.9975C64.6172 46.0001 64.5957 46.0001 64.5746 45.9975L64.6545 46.0083C64.6304 46.0048 64.6068 45.9989 64.5827 45.9958C64.544 45.9833 64.5026 45.9815 64.4628 45.9904C64.4231 45.9922 64.3845 46.0045 64.3511 46.0261C64.317 46.046 64.2872 46.0724 64.2633 46.1039C64.2394 46.1353 64.222 46.1712 64.212 46.2094C64.202 46.2476 64.1996 46.2874 64.2049 46.3265C64.2103 46.3656 64.2233 46.4033 64.2433 46.4374C64.2624 46.4713 64.2881 46.501 64.319 46.5247C64.3499 46.5484 64.3852 46.5655 64.4229 46.5752C64.4811 46.5832 64.5376 46.5979 64.597 46.6002C64.6878 46.6008 64.7774 46.5793 64.8582 46.5376C64.9099 46.5138 64.9557 46.4787 64.9923 46.435C65.0288 46.3913 65.0552 46.34 65.0696 46.2848C65.0885 46.1964 65.0878 46.1049 65.0676 46.0167C65.0404 45.8525 65.0032 45.6898 64.9616 45.5282C64.94 45.4531 64.8908 45.3889 64.8238 45.3486C64.7722 45.3183 64.7128 45.3042 64.6531 45.308C64.5934 45.3117 64.5362 45.3332 64.4888 45.3696C64.4413 45.4061 64.4059 45.4558 64.3869 45.5126C64.3679 45.5693 64.3663 45.6304 64.3822 45.688L64.3818 45.6889Z" fill="#211715"/>
<path d="M61.7317 44.2244C61.6455 44.5 61.6985 45.1367 62.222 45.1928C62.9142 45.1914 62.954 44.4227 62.7224 44.0604C62.5328 43.7637 61.9723 43.6385 61.7317 44.2244Z" fill="#211715"/>
<path d="M67.2747 44.2461C67.3587 44.5227 67.3009 45.1584 66.7769 45.2105C66.0848 45.2036 66.0505 44.4347 66.2853 44.0741C66.4772 43.7789 67.0386 43.658 67.2747 44.2461Z" fill="#211715"/>
<path d="M39.4739 43.1672C39.5099 43.3246 39.5432 43.4836 39.5651 43.6432L39.5544 43.5633C39.5597 43.6033 39.5649 43.6432 39.5706 43.683L39.56 43.6031C39.5646 43.6334 39.5653 43.6642 39.5619 43.6947L39.5725 43.6148C39.5706 43.6259 39.5676 43.6368 39.5635 43.6473L39.5937 43.5756C39.5902 43.5829 39.586 43.5898 39.5812 43.5964L39.6281 43.5356C39.6248 43.5398 39.6211 43.5437 39.617 43.5471L39.6777 43.5002C39.6624 43.5107 39.6458 43.5194 39.6284 43.526L39.7002 43.4957C39.6799 43.5035 39.6589 43.5093 39.6375 43.5129L39.7174 43.5022C39.6948 43.5051 39.6718 43.5051 39.6492 43.5022L39.7291 43.5129C39.7015 43.5088 39.6747 43.501 39.6472 43.4964C39.5689 43.4776 39.4864 43.4884 39.4156 43.5267C39.3815 43.5466 39.3516 43.5731 39.3278 43.6045C39.3039 43.636 39.2864 43.6719 39.2764 43.71C39.2664 43.7482 39.264 43.788 39.2694 43.8272C39.2748 43.8663 39.2878 43.904 39.3077 43.9381C39.327 43.9718 39.3528 44.0014 39.3837 44.025C39.4145 44.0487 39.4498 44.066 39.4873 44.0758C39.5472 44.0859 39.6033 44.1 39.665 44.1048C39.7617 44.1077 39.8577 44.0857 39.9434 44.0406C39.9948 44.0158 40.04 43.9798 40.0759 43.9353C40.1117 43.8909 40.1372 43.839 40.1506 43.7835C40.169 43.6918 40.168 43.5972 40.1476 43.5059L40.1583 43.5858C40.1333 43.3914 40.0984 43.1983 40.0536 43.0074C40.0319 42.9309 39.9809 42.866 39.9118 42.8267C39.8426 42.7874 39.7607 42.7768 39.6839 42.7974C39.6079 42.82 39.5437 42.8712 39.5045 42.9401C39.4654 43.009 39.4545 43.0904 39.4739 43.1672Z" fill="#211715"/>
<path d="M36.7409 41.5581C36.6429 41.8433 36.6794 42.5077 37.2232 42.5816C37.9446 42.6004 38.0086 41.8006 37.778 41.4167C37.5891 41.1014 37.0088 40.9545 36.7409 41.5581Z" fill="#211715"/>
<path d="M42.5155 41.7437C42.5949 42.0346 42.5155 42.6957 41.9684 42.734C41.2474 42.7066 41.2348 41.9043 41.4895 41.5354C41.6982 41.2336 42.2868 41.1241 42.5155 41.7437Z" fill="#211715"/>
<path d="M70.039 44.2506C70.0992 44.2 70.1699 44.1634 70.2459 44.1432C70.3219 44.123 70.4014 44.1199 70.4788 44.134C70.5598 44.1448 70.6371 44.1749 70.7042 44.2216C70.6867 44.2091 70.8073 44.3304 70.7669 44.2784C70.9673 44.5392 70.9644 44.9366 70.9383 45.2471C70.9039 45.5706 70.8047 45.8839 70.6467 46.1682C70.4936 46.4542 70.1943 46.8822 69.8147 46.8308C69.7379 46.8123 69.657 46.8238 69.5883 46.8627C69.5197 46.9017 69.4684 46.9654 69.4449 47.0408C69.4243 47.1176 69.4348 47.1995 69.474 47.2687C69.5133 47.338 69.5783 47.3889 69.6548 47.4106C70.6129 47.5412 71.1746 46.6298 71.4308 45.8354C71.5536 45.4326 71.5819 45.0068 71.5136 44.5913C71.4964 44.4188 71.4437 44.2517 71.359 44.1004C71.2742 43.9492 71.1592 43.8171 71.021 43.7123C70.8063 43.5748 70.5525 43.5114 70.2983 43.5319C70.0442 43.5524 69.8038 43.6557 69.6139 43.8258C69.3243 44.0836 69.7507 44.5076 70.039 44.2509V44.2506Z" fill="#211715"/>
<path d="M63.8198 48.2651C63.8573 48.2451 63.8949 48.226 63.9337 48.2076C63.999 48.1766 63.8711 48.2297 63.9463 48.2026C63.9742 48.1926 64.002 48.1825 64.0303 48.1737C64.1069 48.1506 64.185 48.1327 64.264 48.1202C64.3219 48.1104 64.235 48.1215 64.2742 48.119C64.2972 48.1175 64.3203 48.1142 64.3433 48.1124C64.3991 48.1081 64.4549 48.1058 64.5108 48.1053C64.5629 48.1048 64.615 48.1059 64.6671 48.1086C64.691 48.1099 64.7151 48.1116 64.739 48.1137C64.7471 48.1137 64.8376 48.1262 64.7654 48.1152C64.8438 48.1263 64.9212 48.1433 64.9969 48.1663C65.0281 48.1794 65.06 48.1906 65.0925 48.2001C65.0835 48.1985 65.0299 48.1707 65.0658 48.1892C65.0783 48.1962 65.0929 48.2017 65.1063 48.209C65.1258 48.2193 65.145 48.2301 65.1636 48.2417C65.1887 48.2574 65.2577 48.3098 65.1636 48.2372C65.221 48.2916 65.2971 48.3219 65.3762 48.3219C65.4553 48.3219 65.5313 48.2916 65.5887 48.2372C65.6874 48.1297 65.7216 47.9148 65.5887 47.8121C65.2842 47.5959 64.9163 47.4875 64.5432 47.504C64.186 47.4973 63.8328 47.5806 63.5161 47.7459C63.4478 47.7867 63.3983 47.8526 63.3781 47.9296C63.3579 48.0065 63.3688 48.0883 63.4083 48.1573C63.4497 48.2248 63.5156 48.2738 63.5923 48.2939C63.6689 48.314 63.7504 48.3037 63.8196 48.2651H63.8198Z" fill="#211715"/>
<path d="M34.796 51.1376C34.8726 50.8766 34.9562 50.6138 35.0518 50.3493C35.2803 49.717 35.5183 49.2161 35.8696 48.8389C36.1671 48.5195 36.8833 48.1816 37.2981 48.0616C37.8223 47.9101 38.2726 47.7876 38.7934 47.9228C39.2484 48.0409 39.3557 48.5366 39.5418 49.0912L39.6295 49.418C39.7434 49.4687 39.8364 49.5568 39.8932 49.6677C39.9499 49.7786 39.967 49.9057 39.9415 50.0276C39.9052 50.3355 39.7093 50.5544 39.2445 50.5623C39.3697 50.6163 39.4683 50.6598 39.4683 50.6598C39.599 50.7056 39.7071 50.7998 39.7702 50.9231C39.8334 51.0463 39.8468 51.1891 39.8078 51.3219C39.7379 51.6063 39.4256 51.7111 39.2223 51.702L39.1445 51.6987L39.2539 51.8032C39.3454 51.9208 39.3929 52.0667 39.3883 52.2156C39.3919 52.4368 39.1346 52.6872 38.9499 52.7305C38.7244 52.7836 38.4568 52.8307 38.0949 52.9032C38.0331 53.19 37.9408 53.4693 37.8193 53.7363C37.7319 53.9325 37.6053 54.1087 37.4473 54.2541C37.2893 54.3996 37.1033 54.5112 36.9006 54.5822C36.9006 54.5822 36.6304 55.0249 36.3706 55.4513C35.6339 55.0671 34.5596 54.4543 33.9453 54.0359L34.0264 53.8405C34.3414 52.9636 34.5245 52.0623 34.796 51.1376Z" fill="white"/>
<path d="M34.3175 53.921C34.7858 52.5996 34.9706 51.1779 35.554 49.8966C35.6626 49.6441 35.8009 49.4054 35.966 49.1857C36.1261 48.9918 36.3232 48.8316 36.5457 48.7145C37.0461 48.4183 37.6041 48.233 38.1823 48.171C38.4328 48.1523 38.7673 48.1568 38.9189 48.3463C39.1005 48.5732 39.1625 48.9025 39.252 49.1715C39.3735 49.537 39.9543 49.3804 39.8318 49.0117C39.6395 48.4331 39.4724 47.7565 38.7874 47.6133C38.0842 47.4664 37.3292 47.6914 36.686 47.9738C36.4029 48.0934 36.1348 48.2458 35.8873 48.428C35.6455 48.6194 35.4411 48.8538 35.2845 49.1195C34.8956 49.7481 34.6689 50.4871 34.4672 51.193C34.2226 52.0489 34.0356 52.9215 33.7377 53.7615C33.7173 53.8384 33.7279 53.9202 33.7671 53.9893C33.8064 54.0585 33.8713 54.1094 33.9478 54.1313C34.0246 54.1509 34.106 54.1399 34.1749 54.1008C34.2439 54.0617 34.295 53.9973 34.3175 53.9213V53.921Z" fill="#211715"/>
<path d="M37.4448 49.4556C37.8055 49.4858 38.1665 49.5141 38.527 49.5476C38.714 49.5651 38.9007 49.5837 39.0872 49.6056C39.194 49.6122 39.2999 49.6284 39.4038 49.6541C39.4288 49.6606 39.4527 49.6705 39.4775 49.677C39.5245 49.6896 39.4294 49.6487 39.4929 49.6844C39.5156 49.6969 39.5377 49.7111 39.5603 49.7238C39.5665 49.7273 39.5949 49.7512 39.5668 49.7278C39.5334 49.6998 39.5825 49.7463 39.589 49.7509C39.6266 49.7771 39.5755 49.7238 39.6099 49.7775C39.6444 49.8312 39.6176 49.7675 39.6297 49.8144C39.6346 49.8334 39.6404 49.852 39.6446 49.8706C39.6433 49.8644 39.641 49.8297 39.6446 49.8679C39.6493 49.9211 39.6481 49.9747 39.6411 50.0276C39.6484 49.9672 39.6386 50.0282 39.6317 50.0541C39.6248 50.0799 39.6003 50.1341 39.6272 50.0799C39.6154 50.1037 39.6022 50.1258 39.5896 50.1487C39.5731 50.1771 39.6013 50.1355 39.6033 50.1331C39.5908 50.1474 39.5772 50.1605 39.5643 50.1745C39.5577 50.1819 39.5189 50.2121 39.5501 50.1884C39.5813 50.1648 39.5462 50.1903 39.5413 50.1925C39.5314 50.1968 39.46 50.2334 39.4859 50.2231C39.4621 50.2283 39.4387 50.2348 39.4157 50.2427C39.396 50.2476 39.376 50.2518 39.356 50.2552C39.3971 50.2482 39.3347 50.2573 39.3211 50.2583C39.0918 50.2631 38.8626 50.2502 38.6353 50.2196C38.3871 50.1988 38.1388 50.178 37.8906 50.157C37.811 50.1577 37.7349 50.1895 37.6787 50.2458C37.6225 50.302 37.5906 50.3781 37.5899 50.4576C37.5915 50.5368 37.6237 50.6124 37.6798 50.6684C37.7358 50.7244 37.8113 50.7566 37.8906 50.7582C38.1388 50.7795 38.3871 50.8006 38.6353 50.8215C38.8738 50.8549 39.1147 50.8669 39.3553 50.8572C39.7476 50.8189 40.0943 50.6235 40.209 50.2259C40.2704 50.0377 40.268 49.8345 40.2022 49.6478C40.1364 49.4611 40.0109 49.3013 39.8452 49.193C39.5666 49.0202 39.2064 49.0166 38.8907 48.983C38.4096 48.932 37.9273 48.8953 37.4451 48.855C37.3656 48.8556 37.2895 48.8875 37.2333 48.9438C37.1771 49 37.1452 49.0761 37.1445 49.1556C37.1461 49.2348 37.1783 49.3104 37.2344 49.3664C37.2904 49.4224 37.3659 49.4546 37.4451 49.4562L37.4448 49.4556Z" fill="#211715"/>
<path d="M39.3166 50.9193C39.3442 50.9316 39.3712 50.9453 39.3974 50.9604C39.4139 50.9701 39.4844 51.0297 39.4287 50.9782C39.4508 50.9986 39.4715 51.0195 39.4927 51.0408C39.4405 50.9884 39.4983 51.0549 39.5097 51.0722C39.5412 51.1199 39.5022 51.0238 39.5152 51.0847C39.5195 51.1046 39.5265 51.1962 39.5265 51.1254C39.5265 51.1373 39.5216 51.245 39.53 51.1821C39.5247 51.2188 39.5157 51.2549 39.5031 51.2897C39.5268 51.2223 39.4896 51.2996 39.4838 51.3134C39.4713 51.3314 39.4751 51.3259 39.4952 51.2981C39.485 51.3094 39.4743 51.3203 39.4631 51.3306C39.4381 51.3523 39.4407 51.3508 39.4709 51.3263C39.4584 51.3346 39.4459 51.3428 39.4333 51.3507C39.4155 51.3612 39.3296 51.3917 39.404 51.3684C39.3762 51.3772 39.349 51.3868 39.3206 51.3934C39.2484 51.4105 39.3182 51.3934 39.3182 51.3971C39.2757 51.4015 39.2328 51.4022 39.1902 51.3991C38.7671 51.3774 38.3412 51.3412 37.9207 51.2891C37.841 51.2891 37.7645 51.3208 37.7082 51.3771C37.6518 51.4335 37.6201 51.51 37.6201 51.5897C37.6224 51.6687 37.6549 51.7438 37.7107 51.7997C37.7666 51.8556 37.8417 51.888 37.9207 51.8903C38.316 51.9393 38.7151 51.9697 39.1127 51.9955C39.321 52.0164 39.5309 51.9765 39.7171 51.8808C39.8481 51.8077 39.9561 51.6994 40.0288 51.5681C40.1015 51.4369 40.1361 51.288 40.1287 51.1382C40.1213 50.9798 40.0698 50.8267 39.98 50.6962C39.8902 50.5656 39.7656 50.4627 39.6204 50.3992C39.5512 50.3609 39.4698 50.3507 39.3932 50.3708C39.3166 50.3909 39.2507 50.4396 39.2091 50.507C39.1698 50.5761 39.1591 50.6578 39.1792 50.7346C39.1994 50.8115 39.2488 50.8774 39.317 50.9183L39.3166 50.9193Z" fill="#211715"/>
<path d="M37.8053 52.8233C37.7552 53.0131 37.707 53.2041 37.6425 53.3896C37.6307 53.4233 37.6174 53.4565 37.6049 53.4898C37.5798 53.5572 37.6332 53.4295 37.6032 53.4937C37.5962 53.5089 37.5893 53.5244 37.5821 53.5395C37.5422 53.6224 37.4974 53.7028 37.4479 53.7804C37.4238 53.818 37.3978 53.8555 37.3716 53.8921C37.3385 53.9383 37.3917 53.8699 37.3681 53.8965C37.3556 53.9108 37.3437 53.926 37.3306 53.9405C37.2762 54.0011 37.2176 54.0579 37.1552 54.1102C37.1129 54.1465 37.1866 54.0906 37.1552 54.1095C37.1398 54.1191 37.1256 54.1307 37.1106 54.1409C37.0743 54.1659 37.0367 54.1881 36.9979 54.2093C36.9652 54.2273 36.9318 54.2442 36.8977 54.26C36.8864 54.2652 36.8149 54.2929 36.8852 54.2665C36.863 54.2749 36.8411 54.2839 36.8189 54.2915C36.743 54.3142 36.6788 54.3654 36.6397 54.4343C36.6006 54.5032 36.5896 54.5845 36.609 54.6613C36.6309 54.7377 36.6819 54.8024 36.751 54.8417C36.8201 54.881 36.9019 54.8916 36.9787 54.8714C37.3706 54.7326 37.707 54.4708 37.9378 54.1251C38.17 53.7784 38.2775 53.3809 38.3828 52.9824C38.404 52.9055 38.3938 52.8233 38.3544 52.754C38.3151 52.6846 38.2497 52.6338 38.1728 52.6126C38.096 52.5914 38.0138 52.6016 37.9444 52.641C37.8751 52.6803 37.8242 52.7457 37.803 52.8225L37.8053 52.8233Z" fill="#211715"/>
<path d="M39.0411 52.0158C39.0489 52.0233 39.0563 52.0312 39.0633 52.0396C39.0335 51.9998 39.0273 51.993 39.0446 52.0192C39.0508 52.0348 39.0586 52.0497 39.0679 52.0637C39.0502 52.0204 39.0455 52.0096 39.0534 52.0313C39.0564 52.0393 39.0591 52.0473 39.0615 52.0555C39.0674 52.0741 39.0723 52.0931 39.0765 52.1122C39.0808 52.1314 39.0815 52.1498 39.0871 52.1675C39.0799 52.1452 39.0784 52.0923 39.0836 52.1457C39.0862 52.1743 39.0856 52.2028 39.0873 52.2315C39.0903 52.2838 39.107 52.1614 39.0889 52.2154C39.0825 52.231 39.0775 52.2471 39.0742 52.2637C39.0941 52.2186 39.0973 52.2105 39.0837 52.2394C39.0797 52.2474 39.0755 52.2551 39.0712 52.2629C39.0608 52.2813 39.0489 52.2985 39.0375 52.3163C39.0073 52.3637 39.0815 52.2693 39.0392 52.3134C39.0267 52.3267 39.0142 52.3408 39.0016 52.3538C38.9924 52.3631 38.9499 52.3914 38.9478 52.4031L38.9807 52.378C38.9713 52.385 38.9619 52.3918 38.9523 52.3983C38.9384 52.4078 38.9241 52.4168 38.9094 52.4251C38.8997 52.4306 38.8349 52.4627 38.8888 52.4376C38.9398 52.4142 38.8828 52.4376 38.8702 52.4406C38.8543 52.4446 38.8382 52.448 38.8223 52.4517C38.7471 52.4684 38.673 52.484 38.5981 52.499C38.404 52.5381 38.2098 52.5742 38.0153 52.6134C37.9387 52.635 37.8737 52.6859 37.8344 52.7551C37.7951 52.8244 37.7846 52.9063 37.8053 52.9831C37.8282 53.0589 37.8793 53.123 37.9482 53.1621C38.017 53.2012 38.0983 53.2123 38.1751 53.193C38.3933 53.1495 38.6121 53.1091 38.83 53.0642C38.9114 53.0508 38.9917 53.032 39.0705 53.0079C39.1873 52.9651 39.2947 52.9001 39.3867 52.8164C39.4773 52.7418 39.5511 52.6488 39.6032 52.5435C39.6552 52.4382 39.6843 52.3231 39.6885 52.2058C39.6947 51.9801 39.6153 51.7603 39.4663 51.5907C39.4098 51.535 39.3336 51.504 39.2543 51.5043C39.175 51.5047 39.099 51.5363 39.0429 51.5924C38.9869 51.6485 38.9552 51.7244 38.9549 51.8037C38.9546 51.883 38.9855 51.9592 39.0411 52.0158Z" fill="#211715"/>
<path d="M65.6714 58.3356C65.8064 58.8647 65.928 59.3292 66.0709 59.819C66.9118 59.4644 67.9273 59.0281 68.7514 58.6718C68.4058 58.0065 68.0739 57.3355 67.7388 56.6582C67.566 56.1281 67.1738 54.9489 67.0445 54.4319C66.821 53.5387 66.6219 52.8662 66.5811 52.6368C66.4285 51.9339 66.1962 50.52 66.1019 49.8876C66.0365 49.452 65.8229 49.2036 65.4338 49.2515C65.0649 49.298 64.8906 49.786 64.9066 50.0837C64.9288 50.815 64.9943 51.5444 65.1027 52.268C65.1027 52.268 65.1219 52.417 65.1444 52.5915C64.8576 52.4886 64.2783 52.2767 64.027 52.2103C63.9102 52.1863 63.7887 52.2024 63.6822 52.256C63.5757 52.3096 63.4904 52.3976 63.4401 52.5057C63.4145 52.5701 63.402 52.639 63.4032 52.7083C63.4045 52.7776 63.4196 52.8459 63.4476 52.9094C63.4756 52.9728 63.5159 53.03 63.5662 53.0777C63.6165 53.1254 63.6758 53.1625 63.7407 53.1871L63.8188 53.2221L63.7687 53.2106C63.4245 53.1323 63.1238 53.148 63.0195 53.5047C62.923 53.8341 63.0666 54.0439 63.3931 54.203L63.5666 54.2876L63.4763 54.2867C63.345 54.2822 63.2159 54.3208 63.1086 54.3966C63.0014 54.4724 62.9219 54.5812 62.8823 54.7064C62.8626 54.809 62.869 54.915 62.9009 55.0145C62.9329 55.1139 62.9894 55.2038 63.0652 55.2757C63.2665 55.4761 63.59 55.7633 63.7993 55.9293L63.9851 56.1789C64.1479 56.8964 64.4672 57.5267 65.0597 57.9652C65.211 58.077 65.4825 58.2223 65.6714 58.3356Z" fill="white"/>
<path d="M65.6614 52.436C65.168 52.2607 64.6718 52.0839 64.1689 51.9376C63.9973 51.8856 63.8135 51.8896 63.6443 51.9492C63.4751 52.0087 63.3292 52.1205 63.2279 52.2686C63.1164 52.451 63.0805 52.6698 63.1278 52.8783C63.1751 53.0868 63.3019 53.2686 63.4813 53.3851C63.6797 53.5007 63.888 53.5984 64.1038 53.6771C64.3042 53.7665 64.5059 53.8554 64.7094 53.9383C64.7863 53.9591 64.8682 53.9486 64.9374 53.9093C65.0066 53.87 65.0576 53.805 65.0792 53.7284C65.0985 53.6515 65.0874 53.5701 65.0482 53.5011C65.009 53.4322 64.9447 53.381 64.8687 53.3583C64.8573 53.3536 64.7672 53.3161 64.8223 53.3394C64.7907 53.3261 64.7596 53.3124 64.7278 53.2989C64.6473 53.2641 64.567 53.2288 64.4868 53.1931C64.3193 53.1188 64.1523 53.044 63.9858 52.9686C63.9154 52.9412 63.8479 52.9067 63.7845 52.8655C63.82 52.8913 63.7826 52.8626 63.7774 52.8569C63.7649 52.843 63.7508 52.8306 63.7386 52.8159C63.7718 52.8556 63.7194 52.7796 63.7116 52.7634C63.7367 52.8169 63.7047 52.7272 63.7014 52.7108C63.7139 52.7693 63.705 52.6966 63.7045 52.6733C63.7036 52.6283 63.692 52.7188 63.7045 52.6749C63.7079 52.6624 63.7116 52.6487 63.714 52.6359C63.723 52.5881 63.7204 52.6144 63.7129 52.6305C63.7129 52.6319 63.752 52.5624 63.7323 52.591C63.7126 52.6195 63.7458 52.5766 63.7515 52.5703C63.7604 52.5607 63.77 52.5517 63.78 52.5432C63.7381 52.5808 63.8078 52.5295 63.8261 52.5189C63.8406 52.5105 63.8762 52.5042 63.8236 52.5198C63.8354 52.5163 63.8469 52.5114 63.8589 52.5088C63.8748 52.5062 63.8905 52.5024 63.9059 52.4976C63.9378 52.4851 63.8518 52.4963 63.9059 52.4985C63.9234 52.4993 63.9946 52.5078 63.9502 52.4975C63.9001 52.485 63.9675 52.5045 63.9769 52.507C64.0171 52.5181 64.057 52.5305 64.0967 52.5427C64.3316 52.6151 64.5646 52.6938 64.7981 52.7723C65.0335 52.8519 65.2687 52.9318 65.5027 53.015C65.5407 53.0254 65.5805 53.0283 65.6197 53.0235C65.6589 53.0186 65.6967 53.006 65.7311 52.9865C65.7654 52.967 65.7956 52.941 65.8198 52.9098C65.8441 52.8787 65.862 52.843 65.8725 52.805C65.883 52.7669 65.8859 52.7271 65.881 52.6879C65.8761 52.6487 65.8636 52.6109 65.8441 52.5766C65.8246 52.5422 65.7985 52.5121 65.7673 52.4878C65.7362 52.4635 65.7006 52.4456 65.6625 52.4351L65.6614 52.436Z" fill="#211715"/>
<path d="M63.8486 52.9208C63.618 52.8522 63.3717 52.8574 63.1441 52.9357C63.0276 52.9884 62.9265 53.0699 62.8501 53.1724C62.7737 53.2749 62.7246 53.3952 62.7074 53.5219C62.6819 53.6472 62.6869 53.7769 62.722 53.8999C62.7571 54.023 62.8213 54.1358 62.9091 54.2288C63.0791 54.4078 63.3196 54.5017 63.5376 54.606C63.7557 54.7102 63.9736 54.8064 64.1943 54.9012C64.2637 54.9393 64.345 54.9493 64.4215 54.9293C64.498 54.9092 64.564 54.8606 64.6057 54.7933C64.6738 54.6642 64.6522 54.4481 64.4978 54.3821C64.3289 54.3098 64.1605 54.2365 63.9939 54.1589C63.8124 54.0744 63.6231 53.9948 63.4507 53.8931C63.4307 53.8814 63.411 53.8688 63.3917 53.8555C63.3844 53.8494 63.3766 53.8438 63.3683 53.839C63.3692 53.839 63.4138 53.8793 63.3925 53.8576C63.3781 53.8428 63.361 53.8305 63.3462 53.8158C63.3365 53.8061 63.295 53.7551 63.325 53.7958C63.3564 53.8388 63.3174 53.7833 63.3113 53.7728C63.3049 53.7582 63.2975 53.744 63.2891 53.7304C63.2933 53.7354 63.3125 53.8019 63.3017 53.758C63.2999 53.7502 63.297 53.7426 63.2949 53.7349C63.2928 53.7273 63.2915 53.7191 63.2893 53.7115C63.2779 53.6718 63.2946 53.7333 63.2925 53.7428C63.2936 53.7229 63.2928 53.7029 63.2903 53.6831C63.2903 53.6705 63.2975 53.6102 63.2903 53.6601C63.282 53.7136 63.2958 53.6365 63.2988 53.6242C63.3044 53.6007 63.3113 53.5774 63.3189 53.5546C63.343 53.4847 63.2969 53.5874 63.3227 53.5462C63.3275 53.5388 63.3509 53.5086 63.35 53.5006C63.35 53.5061 63.2999 53.5557 63.3337 53.5219C63.3395 53.5161 63.3446 53.51 63.3504 53.5042C63.3561 53.4984 63.362 53.4936 63.3677 53.4879C63.3965 53.4589 63.3521 53.5052 63.3437 53.5063C63.3629 53.4987 63.381 53.4885 63.3975 53.476C63.3952 53.478 63.336 53.4946 63.3616 53.4918C63.3744 53.4888 63.387 53.4849 63.3992 53.4803C63.4128 53.4768 63.4771 53.4663 63.423 53.4735C63.3689 53.4808 63.4426 53.4735 63.459 53.4735C63.5038 53.4805 63.5493 53.4829 63.5946 53.4808C63.5946 53.4808 63.529 53.4704 63.5619 53.4764C63.5745 53.4788 63.587 53.4805 63.6004 53.4829C63.6299 53.4882 63.6594 53.4943 63.6881 53.5008C63.7261 53.5113 63.7659 53.5142 63.8051 53.5093C63.8442 53.5045 63.8821 53.4919 63.9164 53.4724C63.9508 53.4529 63.9809 53.4269 64.0052 53.3957C64.0294 53.3646 64.0473 53.329 64.0578 53.2909C64.0683 53.2528 64.0712 53.2131 64.0663 53.1739C64.0615 53.1347 64.0489 53.0969 64.0294 53.0625C64.0099 53.0282 63.9839 52.998 63.9527 52.9738C63.9216 52.9495 63.886 52.9316 63.8479 52.9211L63.8486 52.9208Z" fill="#211715"/>
<path d="M63.4766 53.9862C63.3421 53.9856 63.2091 54.0136 63.0863 54.0683C62.9635 54.1231 62.8538 54.2034 62.7645 54.3039C62.6719 54.4127 62.6095 54.5439 62.5832 54.6844C62.557 54.8248 62.568 54.9697 62.615 55.1046C62.7173 55.3402 62.8771 55.5463 63.0797 55.7041C63.2442 55.8552 63.4123 56.0028 63.587 56.1425C63.6443 56.1971 63.7204 56.2275 63.7996 56.2275C63.8787 56.2275 63.9548 56.1971 64.0121 56.1425C64.0677 56.0857 64.0988 56.0094 64.0988 55.9299C64.0988 55.8505 64.0677 55.7742 64.0121 55.7174C63.8717 55.6056 63.7366 55.488 63.6024 55.3682C63.532 55.305 63.4624 55.2409 63.3936 55.1759C63.3599 55.144 63.3264 55.1118 63.2934 55.0791C63.2791 55.0648 63.2661 55.0478 63.2508 55.035C63.2371 55.0189 63.2389 55.0222 63.2562 55.045C63.2483 55.0345 63.2409 55.0237 63.2339 55.0127C63.2214 54.9944 63.2118 54.9751 63.2007 54.9566C63.1632 54.8918 63.2114 55.0049 63.1905 54.9333C63.1846 54.9131 63.1809 54.8906 63.1734 54.8706C63.1691 54.8484 63.1691 54.8539 63.1734 54.8872C63.1719 54.8747 63.1711 54.8621 63.1707 54.8487C63.1698 54.8272 63.1721 54.8056 63.1716 54.7841C63.1729 54.8432 63.1716 54.7861 63.1774 54.7661L63.1836 54.7459C63.1948 54.715 63.1928 54.7192 63.1776 54.7584C63.1741 54.7493 63.2015 54.7208 63.2044 54.7118C63.1668 54.7501 63.2148 54.6824 63.2044 54.7118C63.2199 54.6953 63.2356 54.6798 63.2517 54.6638C63.2941 54.6223 63.2065 54.6869 63.2635 54.6547C63.2805 54.6452 63.2966 54.634 63.3136 54.6248C63.3424 54.6092 63.3548 54.607 63.3172 54.6203C63.3401 54.6121 63.3626 54.6041 63.386 54.598C63.3999 54.5942 63.4754 54.5843 63.4023 54.5907C63.4273 54.5886 63.4524 54.5873 63.4774 54.5871C63.5572 54.5871 63.6336 54.5554 63.69 54.499C63.7464 54.4426 63.778 54.3662 63.778 54.2865C63.778 54.2067 63.7464 54.1303 63.69 54.0739C63.6336 54.0175 63.5572 53.9858 63.4774 53.9858L63.4766 53.9862Z" fill="#211715"/>
<path d="M65.3937 52.188C65.3225 51.7146 65.273 51.2392 65.2451 50.7619C65.2305 50.5177 65.2003 50.2662 65.2075 50.0219C65.2137 49.8761 65.2654 49.7359 65.3555 49.621C65.3857 49.5826 65.429 49.5565 65.4771 49.5478C65.5179 49.5375 65.5607 49.5394 65.6004 49.5532C65.6402 49.5669 65.675 49.592 65.7007 49.6253C65.6931 49.616 65.7345 49.6817 65.7419 49.6976C65.7792 49.7884 65.8038 49.8839 65.815 49.9814C65.8766 50.3659 65.9355 50.7508 66.0001 51.135C66.1254 51.8774 66.2545 52.6173 66.4497 53.3448C66.6812 54.2075 66.9065 55.0659 67.1814 55.9161C67.2509 56.1312 67.321 56.3461 67.3917 56.5608C67.4836 56.8142 67.5941 57.0604 67.7223 57.2974C67.9633 57.7793 68.213 58.2564 68.4655 58.7321C68.647 59.0739 69.1662 58.7706 68.9847 58.4286C68.7434 57.9741 68.5043 57.5183 68.2735 57.0582C68.1589 56.852 68.0597 56.6377 67.9767 56.4169C67.9114 56.2175 67.8462 56.018 67.7813 55.8186C67.4866 54.9093 67.2444 53.9908 66.9981 53.0676C66.7859 52.2726 66.6582 51.4562 66.525 50.6449C66.4909 50.4375 66.4577 50.2301 66.4254 50.0225C66.4054 49.8117 66.3527 49.6054 66.2694 49.4107C66.218 49.3068 66.1456 49.2146 66.0566 49.1402C65.9677 49.0657 65.8642 49.0106 65.7528 48.9784C65.6414 48.9461 65.5245 48.9374 65.4095 48.9527C65.2946 48.9681 65.184 49.0073 65.085 49.0677C64.8705 49.2207 64.7178 49.4455 64.6548 49.7015C64.5781 49.977 64.6161 50.2631 64.6315 50.5447C64.6644 51.1495 64.7238 51.7486 64.8137 52.3477C64.8354 52.4243 64.8864 52.4893 64.9556 52.5286C65.0248 52.5679 65.1067 52.5783 65.1836 52.5577C65.2594 52.5348 65.3235 52.4836 65.3626 52.4148C65.4017 52.3459 65.4127 52.2647 65.3935 52.1879L65.3937 52.188Z" fill="#211715"/>
<path d="M63.6954 56.2588C63.8014 56.7614 64.0137 57.2354 64.318 57.6492C64.6451 58.075 65.0657 58.3255 65.5196 58.5955L65.3818 58.4158C65.4979 58.8668 65.6524 59.3044 65.785 59.7501C65.8953 60.1199 66.4756 59.9624 66.3648 59.5902C66.2646 59.2521 66.147 58.9193 66.0494 58.5803C66.0213 58.4826 65.9993 58.3825 65.9692 58.2856C65.9517 58.2294 65.9226 58.1776 65.8838 58.1335C65.8449 58.0894 65.7972 58.0539 65.7437 58.0296C65.5879 57.9385 65.4282 57.8528 65.2781 57.7524C64.7167 57.3766 64.4233 56.7368 64.2752 56.099C64.1875 55.7222 63.6078 55.8818 63.6955 56.2588H63.6954Z" fill="#211715"/>
<path d="M52.3688 56.56C52.1308 56.3272 51.7622 56.2533 51.4419 56.2535C51.1216 56.2538 50.753 56.3272 50.515 56.56C50.4594 56.6166 50.4284 56.6928 50.4287 56.7721C50.429 56.8514 50.4607 56.9274 50.5168 56.9834C50.5728 57.0395 50.6488 57.0712 50.7281 57.0715C50.8074 57.0718 50.8836 57.0408 50.9402 56.9852C50.9518 56.9738 50.9973 56.9373 50.9482 56.9753C50.8991 57.0132 50.9566 56.9709 50.9712 56.9619C50.9898 56.9504 51.0087 56.9399 51.0282 56.9302C51.0407 56.9239 51.0558 56.9188 51.0679 56.9116C51.0513 56.9215 51.0006 56.9373 51.0477 56.921C51.1097 56.899 51.1732 56.8817 51.2378 56.869C51.2537 56.866 51.3222 56.8469 51.2445 56.8664C51.2638 56.8629 51.2833 56.8609 51.3029 56.8604C51.3494 56.8565 51.3958 56.8548 51.4424 56.8548C51.485 56.8548 51.5277 56.8561 51.5702 56.8594C51.5934 56.8636 51.617 56.8659 51.6406 56.8664C51.6297 56.8758 51.5771 56.8564 51.6369 56.8672C51.7025 56.8786 51.7669 56.8957 51.8295 56.9181C51.8545 56.927 51.8921 56.9531 51.8169 56.9116C51.8276 56.9175 51.8392 56.9218 51.8501 56.9272C51.8718 56.9377 51.893 56.9493 51.9135 56.9619C51.929 56.9715 51.9436 56.9835 51.9592 56.9928C51.8734 56.9419 51.9193 56.9606 51.9443 56.9852C52.0009 57.0408 52.0771 57.0718 52.1564 57.0715C52.2357 57.0712 52.3116 57.0395 52.3677 56.9834C52.4238 56.9274 52.4554 56.8514 52.4558 56.7721C52.4561 56.6928 52.4251 56.6166 52.3694 56.56H52.3688Z" fill="#211715"/>
<path d="M38.8036 45.8609C38.842 45.839 38.8809 45.8173 38.9207 45.7983C38.932 45.7926 38.9435 45.7875 38.9548 45.782C38.9987 45.7606 38.9505 45.7792 38.9357 45.7892C38.9662 45.7734 38.9984 45.7614 39.0318 45.7534C39.1079 45.7283 39.1856 45.7084 39.2644 45.6939C39.2907 45.689 39.3172 45.6846 39.3438 45.6808C39.2983 45.6874 39.343 45.6808 39.3647 45.6793C39.4232 45.6734 39.4819 45.6696 39.5409 45.6677C39.6482 45.6642 39.7531 45.6721 39.8598 45.6786C39.8989 45.681 39.812 45.6697 39.8697 45.6798C39.8934 45.6839 39.917 45.6879 39.9405 45.6923C39.9758 45.6997 40.0112 45.7081 40.0459 45.7181C40.0805 45.7281 40.112 45.7391 40.1447 45.7509C40.2052 45.7726 40.1266 45.7438 40.127 45.7429C40.1274 45.742 40.1661 45.7613 40.1682 45.7624C40.2076 45.7821 40.2453 45.8049 40.281 45.8307C40.3499 45.8706 40.4318 45.8817 40.5088 45.8615C40.5858 45.8413 40.6517 45.7914 40.6922 45.7228C40.7302 45.6535 40.7403 45.5722 40.7202 45.4957C40.7002 45.4192 40.6515 45.3533 40.5843 45.3115C40.2946 45.1005 39.8879 45.0552 39.5413 45.0661C39.1769 45.0706 38.8193 45.1653 38.5005 45.3417C38.4664 45.3616 38.4365 45.3881 38.4127 45.4195C38.3888 45.451 38.3714 45.4868 38.3614 45.525C38.3514 45.5632 38.349 45.603 38.3544 45.6421C38.3597 45.6812 38.3727 45.7189 38.3927 45.753C38.4126 45.7871 38.439 45.8169 38.4705 45.8407C38.5019 45.8646 38.5378 45.882 38.576 45.892C38.6142 45.9021 38.654 45.9044 38.6931 45.8991C38.7322 45.8937 38.7699 45.8807 38.8039 45.8608L38.8036 45.8609Z" fill="#211715"/>
<path d="M70.7709 60.5178C70.5238 59.9268 70.276 59.3361 70.0345 58.7428C69.9115 58.4406 69.7802 57.9519 69.3425 58.0914C69.1079 58.1666 68.879 58.2918 68.6526 58.3894C67.6544 58.8208 66.6557 59.2512 65.6527 59.6712C65.448 59.7568 65.2431 59.8418 65.0378 59.9261C64.8995 59.9621 64.7769 60.0424 64.6885 60.1546C64.5968 60.3006 64.6292 60.4553 64.6652 60.6125C64.8001 61.2012 64.9436 61.7872 65.1085 62.3679C65.478 63.6694 65.9137 65.0243 66.7573 66.1026C67.1396 66.6153 67.6518 67.0166 68.2411 67.2651C68.8436 67.4924 69.5059 67.5057 70.117 67.3027C70.7342 67.1087 71.2962 66.7707 71.7569 66.3166C72.1871 65.8705 72.5484 65.3628 72.8287 64.8101C74.1264 62.4302 74.7572 59.744 74.6547 57.0352C74.6412 56.4698 74.52 55.9122 74.2976 55.3922C74.0972 54.9369 73.8203 54.5194 73.479 54.1575C72.7651 53.3935 71.8026 52.8936 70.8085 52.5989C70.5419 52.5198 70.2714 52.4563 69.9983 52.4042C69.9214 52.3852 69.8402 52.3964 69.7714 52.4355C69.7026 52.4747 69.6514 52.5388 69.6286 52.6146C69.6081 52.6915 69.6186 52.7733 69.6578 52.8425C69.6971 52.9117 69.762 52.9627 69.8385 52.9845C71.506 53.3025 73.2375 54.1692 73.8429 55.8654C73.9139 56.0648 73.9697 56.2693 74.0097 56.4771C74.0493 56.7444 74.0666 57.0145 74.0612 57.2847C74.0747 57.8703 74.0538 58.4563 73.9986 59.0395C73.8298 60.7606 73.3493 62.4367 72.5807 63.9858C72.3433 64.4944 72.0597 64.9801 71.7336 65.4368C71.1221 66.2498 70.1234 66.8991 69.0737 66.8455C67.9778 66.7895 67.1925 65.8297 66.7088 64.9398C66.1556 63.9216 65.8273 62.7635 65.5356 61.6474C65.4694 61.3943 65.4062 61.1403 65.3459 60.8856C65.3199 60.7762 65.2943 60.6668 65.269 60.5573C65.2634 60.5005 65.2506 60.4446 65.2308 60.391C65.1682 60.2927 65.1623 60.5893 65.1125 60.5404C65.1414 60.5303 65.1698 60.5187 65.1976 60.5057C65.5824 60.3485 65.9655 60.1872 66.3484 60.0254C67.2385 59.6491 68.1268 59.2686 69.0133 58.8838L69.3058 58.7572L69.4436 58.6977C69.4601 58.6905 69.4772 58.684 69.4937 58.676C69.5852 58.6312 69.5143 58.7011 69.4623 58.6796L69.3297 58.6024C69.3257 58.579 69.3288 58.5834 69.3391 58.6156L69.3718 58.6965L69.4245 58.8266C69.4611 58.9167 69.4978 59.0067 69.5346 59.0966C69.603 59.2636 69.6718 59.4306 69.741 59.5976C69.8905 59.958 70.0408 60.318 70.1919 60.6775C70.2154 60.7529 70.2666 60.8166 70.3353 60.8556C70.404 60.8947 70.485 60.9061 70.5618 60.8875C70.6384 60.8659 70.7034 60.8149 70.7427 60.7457C70.782 60.6764 70.7925 60.5945 70.7718 60.5176L70.7709 60.5178Z" fill="#211715"/>
<path d="M33.4359 54.0328C33.9377 54.41 34.4667 54.7497 35.0185 55.0492C35.5672 55.3656 36.1223 55.6784 36.6955 55.9489C36.7648 55.987 36.8461 55.997 36.9226 55.9769C36.9992 55.9569 37.0651 55.9083 37.1068 55.8411C37.1464 55.7721 37.1573 55.6903 37.1371 55.6134C37.1169 55.5364 37.0673 55.4705 36.999 55.4298C36.4386 55.1653 35.8956 54.8601 35.3588 54.5512C35.0639 54.3816 34.7712 54.2083 34.4831 54.0274C34.3559 53.9475 34.2293 53.8662 34.1051 53.7818C34.0561 53.7484 34.0075 53.7146 33.9594 53.6804C33.9378 53.6649 33.9163 53.649 33.8947 53.6332C33.8278 53.5845 33.8947 53.6346 33.861 53.6082C33.8034 53.554 33.7274 53.5239 33.6484 53.5239C33.5694 53.5239 33.4934 53.554 33.4359 53.6082C33.38 53.6648 33.3486 53.7412 33.3486 53.8207C33.3486 53.9003 33.38 53.9766 33.4359 54.0333V54.0328Z" fill="#211715"/>
</g>
<defs>
<clipPath id="clip0_89_36">
<rect width="48" height="48" fill="white" transform="translate(26.666 26)"/>
</clipPath>
</defs>
</svg>
