<svg width="27" height="20" viewBox="0 0 27 20" fill="none" xmlns="http://www.w3.org/2000/svg">
<g clip-path="url(#clip0_125_344)">
<path fill-rule="evenodd" clip-rule="evenodd" d="M26.2465 3.43765C25.9976 2.0634 24.8083 1.06177 23.4281 0.749596C21.3625 0.312178 17.5405 0 13.4052 0C9.27281 0 5.38895 0.312178 3.32056 0.749596C1.94318 1.06177 0.751289 1.99923 0.502411 3.43765C0.250115 4.99977 0 7.1881 0 9.99985C0 12.8131 0.250135 14.9999 0.563019 16.5633C0.815625 17.9378 2.00501 18.9379 3.38269 19.2504C5.57443 19.6875 9.3334 20 13.4686 20C17.6035 20 21.3625 19.6875 23.5555 19.2504C24.9332 18.9379 26.1226 18.0008 26.3739 16.5633C26.6237 14.9999 26.9369 12.749 27 9.99985C26.8739 7.1881 26.5594 4.99977 26.2465 3.43765ZM10 15V6L18 10.4998L10 15Z" fill="white"/>
</g>
<defs>
<clipPath id="clip0_125_344">
<rect width="27" height="20" fill="white"/>
</clipPath>
</defs>
</svg>
