<svg width="101" height="100" viewBox="0 0 101 100" fill="none" xmlns="http://www.w3.org/2000/svg">
<rect x="0.75" width="100" height="100" rx="50" fill="#FFE58F"/>
<g clip-path="url(#clip0_61_664)">
<mask id="mask0_61_664" style="mask-type:luminance" maskUnits="userSpaceOnUse" x="26" y="28" width="49" height="44">
<path d="M74.6344 28.3086H26.938V71.6049H74.6344V28.3086Z" fill="white"/>
</mask>
<g mask="url(#mask0_61_664)">
<path d="M37.0009 65.8465C37.4998 66.0964 37.6672 66.445 37.56 67.0124C37.4702 67.5943 37.4649 68.1864 37.5443 68.7699C37.6635 69.8678 38.252 71.1356 39.2622 71.3241C39.9427 71.4566 40.6339 71.5255 41.3271 71.5309C42.2587 71.5395 43.1837 71.3737 44.0543 71.0418C45.1311 70.6269 45.6383 69.6854 45.4095 68.5235C45.3567 68.2521 45.2997 67.9813 45.2399 67.6944L45.2046 67.5246C45.5838 67.5597 45.9562 67.6002 46.3184 67.6391C47.2758 67.7593 48.2389 67.8295 49.2037 67.8504C50.1733 67.8485 51.1095 67.7625 52.1058 67.6643C52.4592 67.6292 52.8229 67.5941 53.1868 67.5632C53.1798 67.6163 53.1729 67.6681 53.1661 67.7188C53.1284 67.9523 53.108 68.1886 53.1048 68.4256C53.1191 69.5479 53.4148 70.4143 53.9596 70.9291C54.3935 71.3397 54.9794 71.5325 55.6978 71.5014C57.2552 71.4349 58.5389 71.3268 59.7375 71.1611C60.6029 71.0418 61.1102 70.4545 61.1279 69.55C61.1446 68.7227 61.1126 67.8815 61.0818 67.0685C61.0722 66.8145 61.0622 66.5606 61.0542 66.3066C61.0453 66.038 61.0228 65.7719 61.0014 65.5148C60.9955 65.4453 60.9896 65.3764 60.9839 65.3086C61.4052 65.1257 61.8214 64.9466 62.2325 64.7709C63.237 64.3403 64.1863 63.9335 65.139 63.4937C67.4642 62.4213 69.134 60.8068 70.1037 58.6956C70.1495 58.5958 70.2064 58.4985 70.2667 58.3963C70.2758 58.381 70.2844 58.3652 70.2938 58.3499C70.3734 58.3604 70.4515 58.3711 70.5284 58.3824C70.7872 58.4186 71.0315 58.4529 71.2825 58.4671C71.6906 58.4902 72.0937 58.4818 72.4688 58.4687C73.7648 58.4253 74.2722 57.9447 74.4076 56.6332C74.6591 54.2025 74.3019 51.785 73.9557 49.447L73.9394 49.3371C73.757 48.1032 73.251 47.6747 71.9349 47.6386C71.3747 47.6236 70.8073 47.6275 70.2581 47.6312C70.053 47.6326 69.8481 47.634 69.6438 47.6344C68.2947 43.7288 66.0824 41.4435 62.6996 40.4652C62.9686 39.8953 63.2005 39.3085 63.3939 38.7086C63.7183 37.7694 64.0246 36.882 64.6397 36.1242C65.0208 35.6543 65.0698 35.1681 64.7708 34.8235C64.6352 34.6945 64.474 34.5955 64.2975 34.5329C64.1211 34.4705 63.9334 34.4458 63.747 34.4608C60.457 34.7669 58.0975 36.0026 56.5358 38.2385C56.4599 38.3432 56.3789 38.4441 56.2931 38.5407L56.2791 38.5569C56.1021 38.5438 55.9319 38.5284 55.7659 38.5134C55.3677 38.469 54.9673 38.4474 54.5669 38.4486C53.4341 38.4736 52.1972 38.5261 50.7851 38.6093C45.8247 38.9022 41.5864 40.1673 37.828 42.4771C34.409 44.5782 32.3792 47.3906 31.6221 51.0753C31.5358 51.4949 31.3723 51.7441 31.1021 51.8568C31.0861 51.6819 31.0738 51.5058 31.0615 51.3339C31.0409 50.7737 30.9631 50.2172 30.8293 49.673C30.7136 49.2486 30.4489 48.8801 30.0837 48.6351C29.7184 48.3901 29.2771 48.2848 28.8406 48.3387C28.4243 48.4028 28.042 48.6057 27.7557 48.9146C27.4694 49.2233 27.2959 49.6198 27.2634 50.0397C27.2398 50.5595 27.2697 51.0803 27.3526 51.5938C27.3802 51.813 27.4089 52.0398 27.4281 52.2602C27.4316 52.301 27.4488 52.3392 27.4771 52.369C27.1735 52.7271 26.8299 53.2013 27.2583 53.7712C27.6659 54.3134 28.2722 54.2061 28.7598 54.1207L28.9005 54.0945C29.0959 54.0478 29.2964 54.0263 29.4972 54.0308C29.8844 54.0577 30.2776 54.1087 30.694 54.1626C30.8243 54.1802 30.958 54.1965 31.0962 54.214C31.0962 54.221 31.0953 54.2281 31.0949 54.2351C31.0877 54.3706 31.0805 54.5084 31.067 54.6459C30.8988 56.1121 31.0977 57.5972 31.6458 58.9675C31.7447 59.211 31.8348 59.466 31.9218 59.7121C32.0568 60.1189 32.2155 60.5177 32.397 60.906C32.7056 61.5681 33.0873 62.1939 33.535 62.7715C34.433 63.8688 35.5133 65.1016 37.0009 65.8465ZM61.9174 36.8203C61.7101 37.2348 61.5296 37.6622 61.3776 38.1C61.0877 39.0016 60.8289 39.9679 60.6085 40.9725C60.4578 41.6589 60.7335 42.07 61.4513 42.229C63.692 42.7248 65.4136 44.0594 66.7136 46.3078C67.121 47.0562 67.446 47.8466 67.6833 48.665C67.9783 49.602 68.2992 50.026 69.4212 50.0619C69.9315 50.0785 70.4469 50.0746 70.9926 50.0706C71.1975 50.0691 71.4085 50.0676 71.6276 50.067L72.0591 55.9362C71.855 55.9824 71.6579 56.0242 71.4667 56.0663C70.9189 56.1843 70.4016 56.295 69.9044 56.4559C69.5464 56.571 69.0946 56.8182 68.9042 57.1671C67.2277 60.2224 64.341 61.6477 61.7388 62.6391L61.4004 62.7675C60.7431 63.0174 60.0628 63.2759 59.4013 63.5481C58.7531 63.8144 58.7121 64.5046 58.6923 64.8366C58.6421 65.6714 58.6217 66.5201 58.6016 67.3412C58.5944 67.6472 58.5869 67.9529 58.578 68.2588C58.5745 68.3755 58.5751 68.4927 58.5759 68.6436V68.7555L55.9501 69.0295C55.9166 68.8115 55.8798 68.5983 55.8447 68.3886C55.742 67.8504 55.6712 67.3069 55.6321 66.7606C55.5953 66.0272 55.3596 65.4998 54.9316 65.1925C54.4742 64.8642 53.8105 64.8109 53.0101 65.0375C51.4059 65.4909 49.8296 65.5014 48.3524 65.4738C47.9098 65.4654 47.4564 65.4126 47.0176 65.3614C46.6994 65.3241 46.3701 65.2858 46.0433 65.2638C45.6397 65.233 45.234 65.2498 44.8347 65.3145C43.8314 65.4869 43.3172 66.0068 43.113 67.0521C43.0475 67.3865 43.0106 67.7281 42.978 68.0486C42.9576 68.2521 42.947 68.4551 42.9347 68.6903C42.9313 68.7555 42.9278 68.8236 42.9238 68.8949L40.1169 69.0882C40.0912 68.826 40.0624 68.5686 40.034 68.3151C39.9453 67.641 39.8948 66.9626 39.8825 66.2828C39.8838 65.6411 39.789 64.9702 39.0921 64.4151L38.7154 64.1161C37.851 63.4572 37.0251 62.7496 36.2418 61.9963C35.2866 61.0728 34.5422 59.954 34.0596 58.7162C33.5769 57.4784 33.3673 56.151 33.4452 54.8249C33.5442 52.5319 34.0004 50.5625 34.8401 48.8039C35.5115 47.3974 36.5879 46.1739 38.1313 45.0634C41.8086 42.4159 46.1718 41.038 51.4696 40.8507C52.1097 40.8281 52.7618 40.8172 53.3926 40.8069C54.35 40.791 55.3398 40.7746 56.3132 40.7168C56.7733 40.6893 57.2118 40.1712 57.3351 40.0119C58.537 38.4699 59.6461 37.5283 60.9311 36.9595C61.2277 36.8282 61.5345 36.7105 61.89 36.5741L62.063 36.5075C62.0139 36.6156 61.9648 36.7194 61.9174 36.8203Z" fill="#3E030E"/>
<path d="M46.3768 28.369C44.7212 28.5133 43.3268 29.4911 42.4499 31.1222C41.858 32.2236 41.6833 33.2885 41.9306 34.2875C42.4257 36.2874 44.0191 37.3058 46.6672 37.3148C46.7346 37.3183 46.8015 37.3198 46.8682 37.3198C48.4682 37.3198 49.906 36.324 50.7439 34.6212C51.4995 33.0854 51.5317 31.8202 50.8421 30.7529C49.7477 29.0597 48.1636 28.2137 46.3768 28.369ZM48.4115 33.4922C47.8869 34.4628 47.1556 35.019 46.457 34.9648H46.4453C45.4554 34.9601 44.728 34.6919 44.3413 34.1904C44.0105 33.7611 43.9333 33.1578 44.1177 32.446C44.2103 32.0576 44.363 31.6859 44.5703 31.3446C44.7233 31.0976 44.9366 30.8937 45.1904 30.752C45.444 30.6104 45.7296 30.5357 46.02 30.535C46.2802 30.5361 46.5369 30.5929 46.773 30.7017C47.2241 30.8964 47.6484 31.1479 48.0358 31.45C48.8149 32.0817 48.9056 32.578 48.4115 33.4922Z" fill="#3E030E"/>
<path d="M50.0704 42.3199C46.8496 42.5709 44.0648 43.3215 41.5545 44.615C41.0962 44.8649 40.6662 45.1636 40.272 45.5057C39.7952 45.9037 39.6864 46.4521 40.0011 46.8703C40.0694 46.9667 40.1604 47.0447 40.2659 47.0979C40.3715 47.1508 40.4884 47.1771 40.6065 47.1744C40.8463 47.1635 41.0804 47.098 41.291 46.9831C43.2871 45.9957 45.5733 45.3232 48.2801 44.9272C49.0762 44.8107 49.8832 44.6655 50.6781 44.4958C51.2942 44.3649 51.6412 43.9785 51.6578 43.4086V43.403C51.6615 43.262 51.6354 43.1217 51.581 42.9915C51.5268 42.8613 51.4455 42.7439 51.3427 42.6473C51.0641 42.39 50.6241 42.2754 50.0704 42.3199Z" fill="#3E030E"/>
<path d="M59.1176 46.8175C59.102 47.051 59.134 47.2853 59.2109 47.5061C59.2881 47.7272 59.4091 47.9305 59.5665 48.1038C59.7239 48.277 59.9146 48.4168 60.1272 48.5148C60.3399 48.6127 60.5699 48.6669 60.8038 48.6739C60.8303 48.6751 60.8566 48.6757 60.8831 48.6757C61.3385 48.6744 61.7756 48.4958 62.1011 48.1776C62.2786 48.007 62.4199 47.8023 62.5162 47.5758C62.6125 47.3493 62.6621 47.1056 62.6618 46.8595C62.6567 45.9018 61.955 45.1401 61.0644 45.1251C59.9433 45.1137 59.1578 45.7864 59.1176 46.8175Z" fill="#3E030E"/>
</g>
</g>
<defs>
<clipPath id="clip0_61_664">
<rect width="48" height="48" fill="white" transform="translate(26.75 26)"/>
</clipPath>
</defs>
</svg>
