<svg width="25" height="28" viewBox="0 0 25 28" fill="none" xmlns="http://www.w3.org/2000/svg">
<path fill-rule="evenodd" clip-rule="evenodd" d="M13.668 0L11.0391 0L11.0391 19.1706C10.6419 18.6622 10.2057 18.1806 9.73351 17.7303C8.45529 16.5112 6.93782 15.5443 5.26774 14.8845C3.59766 14.2248 1.80768 13.8852 2.34087e-06 13.8852L2.77512e-06 16.4611C6.09167 16.4611 11.0299 21.1854 11.0299 27.0131H13.6771C13.6771 21.1854 18.6154 16.4611 24.7071 16.4611L24.7071 13.8852C22.8994 13.8852 21.1094 14.2248 19.4393 14.8845C17.7693 15.5443 16.2518 16.5112 14.9736 17.7303C14.5013 18.1806 14.0652 18.6622 13.668 19.1706L13.668 0Z" fill="white"/>
</svg>
