<svg width="48" height="48" viewBox="0 0 48 48" fill="none" xmlns="http://www.w3.org/2000/svg">
<rect x="1" y="1" width="46" height="46" rx="23" fill="white"/>
<path fill-rule="evenodd" clip-rule="evenodd" d="M15 23.5956V25.4044L28.4839 25.4044C28.1263 25.6777 27.7876 25.9778 27.4708 26.3027C26.6134 27.1822 25.9333 28.2264 25.4692 29.3755C25.0052 30.5246 24.7664 31.7562 24.7664 33L26.5781 33C26.5781 28.8086 29.901 25.4107 34 25.4107V23.5893C29.901 23.5893 26.5781 20.1914 26.5781 16L24.7664 16C24.7664 17.2438 25.0052 18.4754 25.4692 19.6245C25.9333 20.7736 26.6134 21.8178 27.4708 22.6973C27.7876 23.0222 28.1263 23.3223 28.4839 23.5956L15 23.5956Z" fill="#4B514F"/>
<rect x="1" y="1" width="46" height="46" rx="23" stroke="#FFAF77" stroke-width="2"/>
</svg>
