<svg width="19" height="17" viewBox="0 0 19 17" fill="none" xmlns="http://www.w3.org/2000/svg">
<path fill-rule="evenodd" clip-rule="evenodd" d="M19 7.59558L19 9.40443L5.51607 9.40443C5.87372 9.6777 6.2124 9.97781 6.52917 10.3027C7.3866 11.1822 8.06674 12.2264 8.53078 13.3755C8.99481 14.5246 9.23364 15.7562 9.23364 17L7.42188 17C7.42187 12.8086 4.09899 9.41071 0 9.41071L0 7.58928C4.09899 7.58929 7.42187 4.19145 7.42187 1.86304e-06L9.23364 2.16844e-06C9.23364 1.2438 8.99481 2.47541 8.53078 3.62453C8.06674 4.77365 7.3866 5.81776 6.52917 6.69726C6.2124 7.02219 5.87372 7.32229 5.51607 7.59557L19 7.59558Z" fill="#4B514F"/>
</svg>
