<svg width="100" height="100" viewBox="0 0 100 100" fill="none" xmlns="http://www.w3.org/2000/svg">
<rect width="100" height="100" rx="50" fill="#FFD7BB"/>
<path fill-rule="evenodd" clip-rule="evenodd" d="M65.6791 26.782C65.967 26.1947 66.6108 25.8897 67.2659 26.0366C67.904 26.189 68.353 26.7566 68.353 27.4116V40.2615C71.5718 40.9166 74 43.7684 74 47.1764C74 50.5844 71.5718 53.439 68.353 54.094V66.9412C68.353 67.5962 67.904 68.1666 67.2659 68.3162C67.1594 68.3408 67.0505 68.3531 66.9412 68.3529C66.4132 68.3529 65.9219 68.0593 65.6791 67.5736C60.4809 57.1802 50.1045 57.0588 50 57.0588H40.1177V71.1765H42.3115C42.0151 68.9233 41.8739 65.0014 43.8984 62.4094C45.2085 60.7322 47.1398 59.8823 49.6471 59.8823V62.7058C48.0348 62.7058 46.8828 63.1774 46.1261 64.143C44.4066 66.3397 44.9995 70.7388 45.3694 72.2494C45.4739 72.6701 45.3779 73.1162 45.1125 73.4579C44.8442 73.7995 44.432 74 44 74H38.7059C37.9266 74 37.2941 73.3703 37.2941 72.5882V57.0588H35.8824C31.9887 57.0588 28.8235 53.8936 28.8235 49.9999V48.5882H27.4118C26.6325 48.5881 26 47.9585 26 47.1764C26 46.3971 26.6325 45.7646 27.4118 45.7646H28.8235V44.3528C28.8235 40.462 31.9887 37.294 35.8823 37.294H49.9972C50.4207 37.2912 60.5092 37.1189 65.6791 26.782ZM65.5294 32.2427C60.6617 38.302 54.224 39.6968 51.4118 40.0187V54.3369C54.224 54.6588 60.6617 56.0508 65.5294 62.1129V32.2427ZM48.5883 40.1175H35.8823C33.5473 40.1175 31.6471 42.0178 31.6471 44.3528V49.9999C31.6471 52.335 33.5473 54.2352 35.8823 54.2352H48.5883V40.1175ZM68.353 43.2037V51.1519C69.9934 50.5675 71.1765 49.0145 71.1765 47.1764C71.1765 45.3383 69.9934 43.7881 68.353 43.2037Z" fill="#3E030E"/>
</svg>
