<svg width="101" height="100" viewBox="0 0 101 100" fill="none" xmlns="http://www.w3.org/2000/svg">
<rect x="0.333496" width="100" height="100" rx="50" fill="#FFE58F"/>
<g clip-path="url(#clip0_89_21)">
<mask id="mask0_89_21" style="mask-type:luminance" maskUnits="userSpaceOnUse" x="26" y="28" width="49" height="44">
<path d="M74.2179 28.3085H26.5215V71.6048H74.2179V28.3085Z" fill="white"/>
</mask>
<g mask="url(#mask0_89_21)">
<path d="M36.5844 65.8464C37.0833 66.0964 37.2507 66.445 37.1435 67.0124C37.0537 67.5943 37.0484 68.1864 37.1278 68.7699C37.247 69.8677 37.8355 71.1356 38.8457 71.3241C39.5262 71.4565 40.2174 71.5255 40.9106 71.5308C41.8422 71.5394 42.7672 71.3737 43.6378 71.0417C44.7146 70.6269 45.2218 69.6854 44.993 68.5234C44.9402 68.2521 44.8832 67.9812 44.8233 67.6943L44.7881 67.5246C45.1673 67.5597 45.5397 67.6002 45.9019 67.6391C46.8593 67.7592 47.8224 67.8294 48.7872 67.8504C49.7568 67.8485 50.693 67.7624 51.6893 67.6643C52.0427 67.6291 52.4064 67.594 52.7703 67.5632C52.7633 67.6163 52.7564 67.668 52.7496 67.7187C52.7119 67.9523 52.6915 68.1885 52.6883 68.4256C52.7026 69.5478 52.9983 70.4142 53.5431 70.9291C53.9769 71.3396 54.5629 71.5324 55.2813 71.5013C56.8387 71.4348 58.1224 71.3267 59.321 71.161C60.1864 71.0417 60.6937 70.4544 60.7114 69.5499C60.7281 68.7227 60.6961 67.8815 60.6653 67.0684C60.6557 66.8145 60.6457 66.5605 60.6377 66.3066C60.6288 66.0379 60.6063 65.7719 60.5849 65.5147C60.579 65.4453 60.5731 65.3764 60.5674 65.3085C60.9887 65.1256 61.4049 64.9465 61.816 64.7709C62.8205 64.3402 63.7698 63.9334 64.7225 63.4936C67.0477 62.4213 68.7175 60.8067 69.6872 58.6955C69.733 58.5958 69.7899 58.4984 69.8502 58.3962C69.8593 58.381 69.8679 58.3651 69.8773 58.3499C69.9569 58.3603 70.035 58.371 70.1119 58.3823C70.3707 58.4185 70.615 58.4528 70.866 58.467C71.2741 58.4901 71.6772 58.4818 72.0523 58.4686C73.3483 58.4252 73.8557 57.9447 73.9911 56.6331C74.2426 54.2025 73.8854 51.7849 73.5392 49.4469L73.5229 49.3371C73.3405 48.1032 72.8345 47.6746 71.5184 47.6385C70.9582 47.6235 70.3908 47.6274 69.8416 47.6311C69.6365 47.6325 69.4316 47.6339 69.2273 47.6343C67.8782 43.7288 65.6659 41.4434 62.2831 40.4652C62.5521 39.8952 62.784 39.3084 62.9773 38.7085C63.3018 37.7694 63.6081 36.882 64.2232 36.1241C64.6043 35.6542 64.6533 35.1681 64.3543 34.8235C64.2186 34.6944 64.0575 34.5954 63.881 34.5329C63.7046 34.4704 63.5169 34.4458 63.3305 34.4607C60.0405 34.7668 57.681 36.0025 56.1192 38.2384C56.0434 38.3432 55.9624 38.444 55.8766 38.5406L55.8626 38.5568C55.6856 38.5438 55.5154 38.5283 55.3494 38.5133C54.9512 38.469 54.5508 38.4474 54.1504 38.4486C53.0176 38.4736 51.7807 38.526 50.3686 38.6092C45.4082 38.9021 41.1699 40.1672 37.4115 42.4771C33.9925 44.5781 31.9627 47.3905 31.2056 51.0753C31.1193 51.4949 30.9558 51.7441 30.6856 51.8567C30.6696 51.6818 30.6573 51.5058 30.645 51.3338C30.6244 50.7736 30.5466 50.2171 30.4128 49.6729C30.2971 49.2486 30.0324 48.88 29.6671 48.635C29.3019 48.39 28.8606 48.2848 28.424 48.3386C28.0078 48.4027 27.6255 48.6056 27.3392 48.9145C27.0529 49.2232 26.8794 49.6198 26.8469 50.0397C26.8233 50.5594 26.8532 51.0802 26.9361 51.5938C26.9637 51.8129 26.9924 52.0398 27.0116 52.2601C27.015 52.301 27.0323 52.3392 27.0606 52.3689C26.7569 52.7271 26.4134 53.2012 26.8418 53.7711C27.2494 54.3133 27.8557 54.206 28.3433 54.1206L28.484 54.0944C28.6794 54.0478 28.8799 54.0263 29.0807 54.0307C29.4679 54.0576 29.8611 54.1087 30.2775 54.1625C30.4078 54.1801 30.5415 54.1965 30.6797 54.2139C30.6797 54.221 30.6788 54.228 30.6784 54.235C30.6712 54.3705 30.664 54.5084 30.6505 54.6458C30.4823 56.1121 30.6812 57.5971 31.2293 58.9674C31.3282 59.2109 31.4183 59.4659 31.5053 59.7121C31.6403 60.1189 31.799 60.5176 31.9805 60.9059C32.2891 61.568 32.6708 62.1939 33.1185 62.7715C34.0165 63.8688 35.0968 65.1015 36.5844 65.8464ZM61.5009 36.8202C61.2936 37.2347 61.1131 37.6622 60.9611 38.0999C60.6712 39.0016 60.4124 39.9678 60.192 40.9724C60.0413 41.6588 60.317 42.07 61.0348 42.2289C63.2755 42.7247 64.9971 44.0593 66.2971 46.3078C66.7045 47.0561 67.0295 47.8465 67.2668 48.665C67.5618 49.602 67.8827 50.026 69.0047 50.0619C69.515 50.0784 70.0304 50.0745 70.5761 50.0705C70.781 50.0691 70.992 50.0675 71.2111 50.067L71.6426 55.9362C71.4385 55.9823 71.2414 56.0241 71.0502 56.0662C70.5024 56.1842 69.9851 56.295 69.4879 56.4559C69.1299 56.5709 68.6781 56.8181 68.4877 57.167C66.8112 60.2224 63.9245 61.6476 61.3223 62.639L60.9839 62.7675C60.3266 63.0174 59.6463 63.2759 58.9848 63.5481C58.3366 63.8143 58.2956 64.5046 58.2758 64.8366C58.2256 65.6713 58.2052 66.52 58.1851 67.3411C58.1779 67.6471 58.1704 67.9528 58.1615 68.2588C58.158 68.3754 58.1586 68.4926 58.1594 68.6436V68.7554L55.5336 69.0295C55.5001 68.8114 55.4633 68.5983 55.4282 68.3886C55.3255 67.8504 55.2547 67.3068 55.2156 66.7606C55.1788 66.0272 54.9431 65.4997 54.5151 65.1924C54.0577 64.8642 53.394 64.8108 52.5936 65.0374C50.9894 65.4909 49.4131 65.5013 47.9359 65.4737C47.4933 65.4654 47.0399 65.4126 46.6011 65.3613C46.2829 65.3241 45.9536 65.2857 45.6268 65.2637C45.2232 65.2329 44.8175 65.2498 44.4182 65.3144C43.4149 65.4868 42.9007 66.0068 42.6965 67.0521C42.631 67.3865 42.5941 67.7281 42.5615 68.0485C42.5411 68.2521 42.5305 68.4551 42.5182 68.6902C42.5148 68.7554 42.5113 68.8235 42.5073 68.8948L39.7004 69.0882C39.6747 68.8259 39.6459 68.5685 39.6175 68.3151C39.5288 67.6409 39.4783 66.9625 39.466 66.2827C39.4672 65.641 39.3725 64.9701 38.6756 64.415L38.2989 64.116C37.4345 63.4572 36.6086 62.7495 35.8253 61.9962C34.8701 61.0727 34.1257 59.954 33.6431 58.7162C33.1604 57.4783 32.9508 56.151 33.0287 54.8248C33.1277 52.5319 33.5839 50.5624 34.4236 48.8038C35.095 47.3974 36.1714 46.1738 37.7148 45.0634C41.3921 42.4158 45.7553 41.0379 51.0531 40.8506C51.6932 40.8281 52.3453 40.8172 52.9761 40.8068C53.9335 40.7909 54.9233 40.7746 55.8967 40.7167C56.3568 40.6892 56.7953 40.1711 56.9186 40.0118C58.1205 38.4699 59.2296 37.5283 60.5146 36.9594C60.8112 36.8281 61.118 36.7104 61.4735 36.574L61.6465 36.5074C61.5974 36.6155 61.5483 36.7194 61.5009 36.8202Z" fill="#3E030E"/>
<path d="M45.9603 28.3688C44.3046 28.5132 42.9103 29.491 42.0334 31.122C41.4415 32.2234 41.2668 33.2884 41.5141 34.2874C42.0092 36.2873 43.6026 37.3057 46.2507 37.3146C46.3181 37.3182 46.385 37.3197 46.4517 37.3197C48.0517 37.3197 49.4895 36.3239 50.3274 34.6211C51.083 33.0853 51.1152 31.82 50.4256 30.7527C49.3312 29.0596 47.7471 28.2136 45.9603 28.3688ZM47.995 33.492C47.4704 34.4627 46.7391 35.0189 46.0405 34.9647H46.0288C45.0389 34.9599 44.3115 34.6918 43.9248 34.1902C43.594 33.761 43.5168 33.1576 43.7012 32.4459C43.7938 32.0575 43.9465 31.6858 44.1538 31.3445C44.3068 31.0975 44.5201 30.8935 44.7739 30.7519C45.0275 30.6102 45.3131 30.5355 45.6035 30.5349C45.8637 30.5359 46.1204 30.5928 46.3565 30.7015C46.8076 30.8963 47.2319 31.1478 47.6193 31.4499C48.3984 32.0816 48.4891 32.5779 47.995 33.492Z" fill="#3E030E"/>
<path d="M49.6539 42.3198C46.4331 42.5708 43.6483 43.3214 41.138 44.6149C40.6797 44.8648 40.2497 45.1635 39.8555 45.5056C39.3787 45.9035 39.2699 46.452 39.5846 46.8702C39.6529 46.9666 39.7438 47.0446 39.8494 47.0977C39.955 47.1507 40.0719 47.1769 40.19 47.1743C40.4298 47.1634 40.6639 47.0979 40.8745 46.983C42.8706 45.9956 45.1567 45.3231 47.8636 44.9271C48.6597 44.8106 49.4667 44.6653 50.2616 44.4957C50.8776 44.3647 51.2247 43.9784 51.2413 43.4085V43.4029C51.245 43.2618 51.2189 43.1216 51.1645 42.9914C51.1103 42.8611 51.029 42.7438 50.9262 42.6472C50.6476 42.3899 50.2076 42.2753 49.6539 42.3198Z" fill="#3E030E"/>
<path d="M58.7011 46.8172C58.6855 47.0507 58.7175 47.285 58.7944 47.5059C58.8716 47.727 58.9926 47.9302 59.15 48.1036C59.3074 48.2768 59.4981 48.4165 59.7107 48.5146C59.9234 48.6124 60.1534 48.6666 60.3873 48.6737C60.4138 48.6749 60.4401 48.6754 60.4666 48.6754C60.922 48.6742 61.3591 48.4955 61.6846 48.1773C61.8621 48.0068 62.0034 47.8021 62.0997 47.5756C62.196 47.3491 62.2456 47.1053 62.2453 46.8593C62.2402 45.9016 61.5385 45.1399 60.6479 45.1249C59.5268 45.1134 58.7413 45.7861 58.7011 46.8172Z" fill="#3E030E"/>
</g>
</g>
<defs>
<clipPath id="clip0_89_21">
<rect width="48" height="48" fill="white" transform="translate(26.3335 26)"/>
</clipPath>
</defs>
</svg>
