<svg width="25" height="21" viewBox="0 0 25 21" fill="none" xmlns="http://www.w3.org/2000/svg">
<g clip-path="url(#clip0_125_330)">
<path fill-rule="evenodd" clip-rule="evenodd" d="M25 2.48547C24.0779 2.90794 23.0903 3.19282 22.0515 3.32171C23.1116 2.66525 23.9263 1.62544 24.308 0.388714C23.3184 0.995056 22.2177 1.43645 21.0503 1.67428C20.1148 0.642401 18.7821 0 17.3074 0C14.4749 0 12.1775 2.37269 12.1775 5.30159C12.1775 5.71614 12.224 6.12071 12.3119 6.50916C8.04816 6.28847 4.27062 4.17765 1.73947 0.968971C1.29687 1.75433 1.04551 2.66525 1.04551 3.63524C1.04551 5.47421 1.95025 7.0976 3.32728 8.05072C2.48563 8.02157 1.69494 7.78297 1.00321 7.3853C1.00321 7.40832 1.00321 7.43031 1.00321 7.45231C1.00321 10.0217 2.77261 12.1634 5.11623 12.6529C4.68798 12.7728 4.23375 12.8375 3.76592 12.8375C3.43465 12.8375 3.11377 12.8056 2.79958 12.7409C3.45395 14.8455 5.34804 16.382 7.59097 16.4249C5.83715 17.8463 3.62589 18.6925 1.22141 18.6925C0.806028 18.6925 0.399056 18.6685 0 18.6176C2.26816 20.1241 4.96433 21 7.86163 21C17.2957 21 22.4552 12.9224 22.4552 5.91791C22.4552 5.68801 22.4496 5.45631 22.4419 5.2305C23.4431 4.48325 24.3117 3.54931 25 2.48547Z" fill="white"/>
</g>
<defs>
<clipPath id="clip0_125_330">
<rect width="25" height="21" fill="white"/>
</clipPath>
</defs>
</svg>
